<?xml version="1.0" encoding="UTF-8"?>
<svg width="42px" height="31px" viewBox="0 0 42 31" version="1.1" xmlns="http://www.w3.org/2000/svg" xmlns:xlink="http://www.w3.org/1999/xlink">
    <!-- Generator: Sketch 45.2 (43514) - http://www.bohemiancoding.com/sketch -->
    <title>bed</title>
    <desc>Created with Sketch.</desc>
    <defs></defs>
    <g id="Page-1" stroke="none" stroke-width="1" fill="none" fill-rule="evenodd" opacity="0.777004076">
        <g id="bTaskee_Service_Maid" transform="translate(-484.000000, -2682.000000)" fill="#000000">
            <path d="M523.832724,2695.11041 L523.832724,2684.60981 C523.832724,2683.17061 522.678671,2682 521.259835,2682 L488.74003,2682 C487.321869,2682 486.167816,2683.17061 486.167816,2684.60981 L486.167816,2695.11041 C484.942065,2695.29928 484,2696.37511 484,2697.67036 L484,2704.16962 C484,2704.62337 484.362945,2704.99139 484.810146,2704.99139 L485.678353,2704.99139 L485.678353,2709.04573 C485.678353,2709.49935 486.040623,2709.86751 486.488499,2709.86751 L487.950543,2709.86751 L487.950543,2711.44955 C487.950543,2711.90372 488.313353,2712.27132 488.760689,2712.27132 C489.208429,2712.27132 489.570835,2711.90372 489.570835,2711.44955 L489.570835,2709.86751 L520.429165,2709.86751 L520.429165,2711.44955 C520.429165,2711.90372 520.791436,2712.27132 521.239311,2712.27132 C521.686512,2712.27132 522.049457,2711.90372 522.049457,2711.44955 L522.049457,2709.86751 L523.512041,2709.86751 C523.959242,2709.86751 524.322187,2709.49935 524.322187,2709.04573 L524.322187,2704.99139 L525.189854,2704.99139 C525.637595,2704.99139 526,2704.62337 526,2704.16962 L526,2697.67036 C526,2696.37511 525.057935,2695.29928 523.832724,2695.11041 Z M487.787568,2684.60981 C487.787568,2684.07689 488.214785,2683.64354 488.74003,2683.64354 L521.259835,2683.64354 C521.784675,2683.64354 522.211892,2684.07689 522.211892,2684.60981 L522.211892,2695.08041 L519.367469,2695.08041 C519.933356,2694.46244 520.50937,2693.81242 521.105367,2693.11693 C521.37069,2692.80767 521.37069,2692.34761 521.105367,2692.03835 C518.761344,2689.3061 516.799306,2687.31536 514.106245,2684.93879 C513.80136,2684.66966 513.347273,2684.66966 513.042388,2684.93879 C510.349327,2687.31536 508.387153,2689.3061 506.043266,2692.03835 C505.778483,2692.34761 505.777943,2692.80767 506.043266,2693.11693 C506.639803,2693.81242 507.215277,2694.46244 507.781164,2695.08041 L502.218296,2695.08041 C502.784183,2694.46244 503.359657,2693.81242 503.956194,2693.11693 C504.221517,2692.80767 504.221517,2692.34761 503.956194,2692.03835 C501.612712,2689.30664 499.650133,2687.3159 496.957072,2684.93879 C496.652187,2684.66966 496.1981,2684.66966 495.893215,2684.93879 C493.200154,2687.3159 491.237575,2689.30664 488.894093,2692.03835 C488.62877,2692.34761 488.62877,2692.80767 488.894093,2693.11693 C489.49009,2693.81242 490.066104,2694.46244 490.631991,2695.08041 L487.787568,2695.08041 L487.787568,2684.60981 Z M510.017032,2695.08041 C509.271158,2694.30466 508.518532,2693.47974 507.73215,2692.57771 C509.668805,2690.35523 511.383614,2688.61595 513.574519,2686.65191 C515.765559,2688.6154 517.480233,2690.35523 519.417023,2692.57771 C518.630641,2693.47974 517.87734,2694.30466 517.132141,2695.08041 L510.017032,2695.08041 Z M492.867859,2695.08041 C492.121985,2694.30411 491.368819,2693.47974 490.582977,2692.57771 C492.519227,2690.35523 494.234441,2688.61595 496.425346,2686.65191 C498.616386,2688.61595 500.33106,2690.35523 502.26785,2692.57771 C501.481468,2693.47974 500.728302,2694.30411 499.982968,2695.08041 L492.867859,2695.08041 Z M487.298645,2708.22396 L522.701895,2708.22396 L522.701895,2704.99139 L487.298645,2704.99139 L487.298645,2708.22396 Z M524.379708,2703.34784 L485.620292,2703.34784 L485.620292,2697.67036 C485.620292,2697.14881 486.038598,2696.72395 486.553311,2696.72395 L523.446689,2696.72395 C523.961402,2696.72395 524.379708,2697.14881 524.379708,2697.67036 L524.379708,2703.34784 Z" id="bed"></path>
        </g>
    </g>
</svg>