<?xml version="1.0" encoding="UTF-8"?>
<svg width="98px" height="99px" viewBox="0 0 98 99" version="1.1" xmlns="http://www.w3.org/2000/svg" xmlns:xlink="http://www.w3.org/1999/xlink">
    <!-- Generator: Sketch 44.1 (41455) - http://www.bohemiancoding.com/sketch -->
    <title>hand</title>
    <desc>Created with Sketch.</desc>
    <defs>
        <circle id="path-1" cx="49" cy="49" r="49"></circle>
        <polygon id="path-3" points="0.0710526316 0.884204082 0.0710526316 56.8175102 44.9925685 56.8175102 44.9925685 0.884204082"></polygon>
        <path d="M44.5796053,26.560449 C44.1722368,25.8798367 43.4877632,25.5057959 42.6505263,25.5057959 L42.6363158,25.5057959 C41.0589474,25.5105306 39.1571053,26.1343265 37.6768421,27.1380816 C36.3126316,28.0625306 34.3326316,29.7729388 32.6628947,32.6906939 C32.3478947,33.2363673 31.8351316,33.6068571 31.2844737,33.694449 C31.2844737,33.5689796 31.2844737,33.4257551 31.2844737,33.2872653 C31.2844737,32.9960816 31.2844737,32.6445306 31.2702632,32.2610204 L31.2702632,11.3017143 C31.2702632,9.21134694 29.5732895,7.51514286 27.4819737,7.51514286 C25.3906579,7.51514286 23.6936842,9.21134694 23.6936842,11.3017143 L23.6936842,25.976898 C23.6936842,26.2408571 23.4805263,26.4539184 23.2211842,26.4539184 C22.9582895,26.4539184 22.7451316,26.2408571 22.7451316,25.976898 L22.7451316,4.67077551 C22.7451316,2.58159184 21.0469737,0.884204082 18.9568421,0.884204082 C16.8655263,0.884204082 15.1685526,2.58159184 15.1685526,4.67077551 L15.1685526,25.976898 C15.1685526,26.2408571 14.9553947,26.4539184 14.6913158,26.4539184 C14.4331579,26.4539184 14.22,26.2408571 14.22,25.976898 L14.22,8.93436735 C14.22,7.10795918 12.735,5.61889796 10.9030263,5.61889796 C9.07578947,5.61889796 7.58605263,7.10795918 7.58605263,8.93436735 L7.58605263,27.8731429 C7.58605263,28.1323673 7.37407895,28.3442449 7.11473684,28.3442449 C6.85539474,28.3442449 6.64223684,28.1323673 6.64223684,27.8731429 L6.64223684,16.0364082 C6.64223684,14.21 5.15368421,12.7209388 3.31697368,12.7209388 C1.48973684,12.7209388 0,14.21 0,16.0364082 L0,41.7907755 C0.920131579,55.0277959 9.04381579,56.8175102 16.8702632,56.8175102 C23.3609211,56.8175102 29.1848684,53.599102 32.0565789,48.4631429 C32.4272368,47.8665714 33.4267105,46.2934694 34.6109211,44.4303673 C37.575,39.7797143 40.0547368,35.8724082 40.4206579,35.1740408 C41.2389474,33.6293469 42.1507895,32.418449 43.0614474,31.6786531 C43.8809211,31.0075102 44.3842105,30.152898 44.7915789,29.4036327 C45.0047368,29.0106531 45.1847368,27.5724898 44.5796053,26.560449 Z M43.0756579,28.5892653 C42.6967105,29.282898 42.3402632,29.8202857 41.8594737,30.2132653 C40.7439474,31.1235102 39.6982895,32.4965714 38.7461842,34.2910204 C38.385,34.9751837 35.1521053,40.0566939 33.0146053,43.4183265 C31.8209211,45.2861633 30.8167105,46.8628163 30.4235526,47.5008163 C27.8656579,52.0780816 22.6717105,54.922449 16.8702632,54.922449 C6.88263158,54.922449 2.54368421,51.0790612 1.89710526,41.7256735 L1.89710526,16.0364082 C1.89710526,15.250449 2.53065789,14.6171837 3.32644737,14.6171837 C4.10802632,14.6171837 4.74631579,15.250449 4.74631579,16.0364082 L4.74631579,27.8731429 C4.74631579,29.177551 5.80973684,30.2404898 7.11473684,30.2404898 C8.41855263,30.2404898 9.48315789,29.177551 9.48315789,27.8731429 L9.48315789,8.93436735 C9.48315789,8.14840816 10.1214474,7.51514286 10.9030263,7.51514286 C11.6893421,7.51514286 12.3228947,8.14840816 12.3228947,8.93436735 L12.3228947,25.976898 C12.3228947,27.2860408 13.3875,28.3442449 14.6913158,28.3442449 C16.0010526,28.3442449 17.0597368,27.2860408 17.0597368,25.976898 L17.0597368,4.67077551 C17.0597368,3.62677551 17.9111842,2.78044898 18.9568421,2.78044898 C20.0025,2.78044898 20.8527632,3.62677551 20.8527632,4.67077551 L20.8527632,25.976898 C20.8527632,27.2860408 21.9126316,28.3442449 23.2211842,28.3442449 C24.5261842,28.3442449 25.5896053,27.2860408 25.5896053,25.976898 L25.5896053,11.3017143 C25.5896053,10.2565306 26.4363158,9.40546939 27.4819737,9.40546939 C28.5276316,9.40546939 29.3790789,10.2565306 29.3790789,11.3017143 L29.3790789,32.2882449 C29.3921053,32.6812245 29.3873684,33.0102857 29.3873684,33.2825306 C29.3873684,34.1335918 29.3873684,34.7443673 29.8551316,35.2012653 C30.2435526,35.5812245 30.7527632,35.608449 31.1092105,35.608449 C32.3988158,35.5812245 33.6256579,34.8224898 34.3101316,33.6293469 C35.7951316,31.026449 37.5382895,29.514898 38.7367105,28.7052653 C39.9067105,27.9145714 41.4378947,27.4020408 42.6457895,27.3973061 L42.6505263,27.3973061 C42.8542105,27.3973061 42.9003947,27.4564898 42.9228947,27.4943673 C43.1123684,27.7299184 43.1218421,28.3264898 43.0756579,28.5892653 Z" id="path-5"></path>
    </defs>
    <g id="Page-1" stroke="none" stroke-width="1" fill="none" fill-rule="evenodd">
        <g id="hand"></g>
        <g id="Group-14-Copy">
            <g id="Group-16">
                <g id="Path-9" transform="translate(0.580471, 0.580471)">
                    <mask id="mask-2" fill="white">
                        <use xlink:href="#path-1"></use>
                    </mask>
                    <use id="Mask" fill="#F8F8F8" xlink:href="#path-1"></use>
                </g>
            </g>
            <g id="hold-(1)-copy" transform="translate(30.000000, 22.000000)">
                <mask id="mask-4" fill="white">
                    <use xlink:href="#path-3"></use>
                </mask>
                <g id="Clip-2"></g>
                <path d="M43.8707211,28.2243702 C42.7385511,26.5189865 38.1545539,32.1984614 30.1187294,45.262795" id="Path-4" fill="#FFAE53" mask="url(#mask-4)"></path>
                <path d="M30.4621968,44.8622648 C27.2379986,50.9493981 23.5884175,54.2518933 19.5134534,54.7697505 C15.4384894,55.2876076 16.6280967,55.5638752 23.0822754,55.5985531 L29.752133,50.9996811 L33.9361894,43.8080556 L39.732923,34.4750678 L44.2876234,27.5423709" id="Path-6" fill="#FFAE53" mask="url(#mask-4)"></path>
                <g id="Fill-1" mask="url(#mask-4)">
                    <use fill="#FF7F53" fill-rule="evenodd" xlink:href="#path-5"></use>
                    <path stroke="#FF7F53" stroke-width="0.1" d="M44.6225077,26.5347705 L44.622519,26.5347895 C45.1402725,27.4006965 45.1510644,28.8457501 44.8355063,29.4275155 C44.2547911,30.4956144 43.790534,31.1461652 43.0929741,31.7174611 C42.1910428,32.4501678 41.2828546,33.653274 40.4649466,35.1972466 C40.1455291,35.8068611 38.4229385,38.5423243 34.6531185,44.4571886 C33.0471357,46.9838591 32.4151111,47.9808304 32.1002203,48.4875444 C29.215171,53.6473595 23.3690182,56.8675102 16.8702632,56.8675102 C6.28842847,56.8675102 0.73831944,53.1332811 -0.05,41.7907755 L-0.05,16.0364082 C-0.05,14.1823807 1.46212768,12.6709388 3.31697368,12.6709388 C5.17958369,12.6709388 6.69223684,14.1806742 6.69223684,16.0364082 L6.69223684,27.8731429 C6.69223684,28.1044854 6.88274053,28.2942449 7.11473684,28.2942449 C7.34646979,28.2942449 7.53605263,28.104748 7.53605263,27.8731429 L7.53605263,8.93436735 C7.53605263,7.08033987 9.04818031,5.56889796 10.9030263,5.56889796 C12.7609858,5.56889796 14.27,7.07871565 14.27,8.93436735 L14.27,25.976898 C14.27,26.2124123 14.4599498,26.4039184 14.6913158,26.4039184 C14.9277856,26.4039184 15.1185526,26.2132378 15.1185526,25.976898 L15.1185526,4.67077551 C15.1185526,2.5535662 16.8383236,0.834204082 18.9568421,0.834204082 C21.0745828,0.834204082 22.7951316,2.55397252 22.7951316,4.67077551 L22.7951316,25.976898 C22.7951316,26.213074 22.985735,26.4039184 23.2211842,26.4039184 C23.4535711,26.4039184 23.6436842,26.2125787 23.6436842,25.976898 L23.6436842,11.3017143 C23.6436842,9.18372762 25.3630487,7.46514286 27.4819737,7.46514286 C29.6008986,7.46514286 31.3202632,9.18372762 31.3202632,11.3017143 L31.3202289,32.259169 C31.3319567,32.5756756 31.3344737,32.8197168 31.3344737,33.2872653 L31.3344737,33.3751522 C31.3344737,33.5403337 31.3344737,33.5403337 31.2766191,33.6450698 C31.8137574,33.5596285 32.3129553,33.1968821 32.6194983,32.6658595 C34.0493413,30.1673031 35.7993874,28.3499287 37.6487806,27.0966986 C39.1348143,26.0890306 41.0461256,25.4605689 42.6363158,25.4557959 L42.6505263,25.4557959 C43.5051751,25.4557959 44.2060104,25.8389063 44.6225077,26.5347705 Z M43.0277979,28.5725762 C43.0849731,28.2344862 43.0337896,27.7119972 42.8799071,27.5199028 C42.8517614,27.4725211 42.8003531,27.4473061 42.6505263,27.4473061 L42.6459855,27.4473057 C41.4486683,27.451999 39.9270234,27.9611911 38.7647008,28.7466965 C37.1551104,29.8341081 35.618508,31.4369332 34.3535017,33.6542272 C33.6604079,34.8623963 32.4176463,35.6308381 31.1092105,35.658449 C30.5415017,35.658449 30.1532016,35.5627864 29.8201941,35.2370336 C29.4079448,34.8343601 29.3373684,34.452706 29.3373684,33.2825306 C29.3374736,33.1951521 29.3374736,33.1951521 29.3377886,33.1027975 C29.3390094,32.7398315 29.3375941,32.5459582 29.3290789,32.2882449 L29.3290789,11.3017143 C29.3290789,10.2841499 28.5000224,9.45546939 27.4819737,9.45546939 C26.4648647,9.45546939 25.6396053,10.2832076 25.6396053,11.3017143 L25.6396053,25.976898 C25.6396053,27.3120418 24.5554147,28.3942449 23.2211842,28.3942449 C21.8846171,28.3942449 20.8027632,27.3132551 20.8027632,25.976898 L20.8027632,4.67077551 C20.8027632,3.65492155 19.9754191,2.83044898 18.9568421,2.83044898 C17.9380296,2.83044898 17.1097368,3.65515572 17.1097368,4.67077551 L17.1097368,25.976898 C17.1097368,27.3136601 16.0286618,28.3942449 14.6913158,28.3942449 C13.3578642,28.3942449 12.2728947,27.311638 12.2728947,25.976898 L12.2728947,8.93436735 C12.2728947,8.17602748 11.6617329,7.56514286 10.9030263,7.56514286 C10.1473931,7.56514286 9.53315789,8.17768648 9.53315789,8.93436735 L9.53315789,27.8731429 C9.53315789,29.2047659 8.44656656,30.2904898 7.11473684,30.2904898 C5.78212768,30.2904898 4.69631579,29.2051703 4.69631579,27.8731429 L4.69631579,16.0364082 C4.69631579,15.2797273 4.08208058,14.6671837 3.32644737,14.6671837 C2.55967718,14.6671837 1.94710526,15.2766659 1.94710526,16.0364082 L1.94698622,41.7222253 C2.59225776,51.0567001 6.91675527,54.872449 16.8702632,54.872449 C22.6539881,54.872449 27.8310732,52.0374736 30.3809859,47.4745852 C30.732983,46.9033791 31.5616792,45.5989656 32.9724124,43.3914981 C34.0661788,41.6713387 34.3665868,41.1986936 34.9100337,40.3422992 L34.9468794,40.2842334 C37.1819868,36.7617374 38.4773715,34.6931124 38.7020162,34.2675856 C39.6592851,32.4634046 40.7092627,31.0872788 41.8278308,30.1745519 C42.2586099,29.822449 42.6014496,29.3520022 43.0277979,28.5725762 Z"></path>
                </g>
            </g>
            <g id="Account" transform="translate(35.000000, 35.000000)"></g>
            <path d="M28.5003761,28.0189628 C30.9824134,28.0189628 33.0016074,25.9958277 33.0016074,23.5089459 C33.0016074,21.0222783 30.9824134,19 28.5003761,19 C26.0194078,19 24,21.0222783 24,23.5089459 C24,25.9958277 26.0194078,28.0189628 28.5003761,28.0189628 Z M28.5003761,21.5695637 C29.567588,21.5695637 30.4361942,22.439651 30.4361942,23.5089459 C30.4361942,24.578455 29.567588,25.4485423 28.5003761,25.4485423 C27.4331642,25.4485423 26.5654132,24.578455 26.5654132,23.5089459 C26.5654132,22.439651 27.4331642,21.5695637 28.5003761,21.5695637 Z" id="Fill-5" fill="#5EC871"></path>
            <g id="Group-12" transform="translate(14.000000, 35.000000)">
                <path d="M55.3854903,41.7841964 C57.2518284,41.7841964 58.7707668,40.2620791 58.7707668,38.3920982 C58.7707668,36.5212605 57.2518284,35 55.3854903,35 C53.5180833,35 52,36.5212605 52,38.3920982 C52,40.2620791 53.5180833,41.7841964 55.3854903,41.7841964 Z M55.3854903,37.5704205 C55.8372168,37.5704205 56.2053536,37.9386332 56.2053536,38.3920982 C56.2053536,38.8447064 55.8372168,39.2137759 55.3854903,39.2137759 C54.9326949,39.2137759 54.5654132,38.8447064 54.5654132,38.3920982 C54.5654132,37.9386332 54.9326949,37.5704205 55.3854903,37.5704205 Z" id="Fill-4" fill="#FFAE53"></path>
                <path d="M4.50037612,22.0189628 C6.9824134,22.0189628 9.00160738,19.9958277 9.00160738,17.5089459 C9.00160738,15.0222783 6.9824134,13 4.50037612,13 C2.01940777,13 0,15.0222783 0,17.5089459 C0,19.9958277 2.01940777,22.0189628 4.50037612,22.0189628 Z M4.50037612,15.5695637 C5.56758802,15.5695637 6.43619417,16.439651 6.43619417,17.5089459 C6.43619417,18.578455 5.56758802,19.4485423 4.50037612,19.4485423 C3.43316423,19.4485423 2.56541321,18.578455 2.56541321,17.5089459 C2.56541321,16.439651 3.43316423,15.5695637 4.50037612,15.5695637 Z" id="Fill-5" fill="#FF7F53"></path>
                <path d="M60.0959561,31.7739615 C60.3048235,32.2676965 60.8059342,32.5930689 61.343602,32.5654369 C61.8789183,32.5386616 62.3507405,32.1680927 62.5078721,31.6550796 C62.8484307,30.5365183 61.5723514,29.5691834 60.5895843,30.1993648 C60.075219,30.5290212 59.8588691,31.2076122 60.0959561,31.7739615 C60.1286651,31.8510742 60.064316,31.6962063 60.0959561,31.7739615 Z" id="Fill-6" fill="#FFAE53"></path>
                <g id="Group-5" transform="translate(55.000000, 0.000000)" fill="#5EC871">
                    <rect id="Rectangle-4" x="2.48961691" y="0" width="1.65974461" height="6.62703054" rx="0.829872303"></rect>
                    <rect id="Rectangle-4" transform="translate(3.319489, 3.313515) rotate(-90.000000) translate(-3.319489, -3.313515) " x="2.48961691" y="2.79776202e-14" width="1.65974461" height="6.62703054" rx="0.829872303"></rect>
                </g>
            </g>
            <g id="Group-5" transform="translate(16.000000, 30.000000)" fill="#FFAE53">
                <rect id="Rectangle-4" x="2.48961691" y="0" width="1.65974461" height="6.62703054" rx="0.829872303"></rect>
                <rect id="Rectangle-4" transform="translate(3.319489, 3.313515) rotate(-90.000000) translate(-3.319489, -3.313515) " x="2.48961691" y="2.66453526e-14" width="1.65974461" height="6.62703054" rx="0.829872303"></rect>
            </g>
        </g>
    </g>
</svg>