<?xml version="1.0" encoding="UTF-8"?>
<svg width="31px" height="31px" viewBox="0 0 31 31" version="1.1" xmlns="http://www.w3.org/2000/svg" xmlns:xlink="http://www.w3.org/1999/xlink">
    <!-- Generator: Sketch 46.1 (44463) - http://www.bohemiancoding.com/sketch -->
    <title>Group 21</title>
    <desc>Created with Sketch.</desc>
    <defs>
        <polygon id="path-1" points="0.0344721485 29.4827586 29.8758621 29.4827586 29.8758621 0.0226790451 0.0344721485 0.0226790451"></polygon>
    </defs>
    <g id="Page-1" stroke="none" stroke-width="1" fill="none" fill-rule="evenodd">
        <g id="Group-21">
            <g id="info" transform="translate(0.720000, 0.750000)">
                <g id="Group-3">
                    <mask id="mask-2" fill="white">
                        <use xlink:href="#path-1"></use>
                    </mask>
                    <g id="Clip-2"></g>
                    <path d="M14.937931,0 C6.70138568,0 0,6.61320955 0,14.7413793 C0,22.8695491 6.70138568,29.4827586 14.937931,29.4827586 C23.1744764,29.4827586 29.8758621,22.8695491 29.8758621,14.7413793 C29.8758621,6.61320955 23.1744764,0 14.937931,0 Z M14.937931,27.669002 C7.71601592,27.669002 1.83794005,21.8682692 1.83794005,14.7413793 C1.83794005,7.61448939 7.71601592,1.81375663 14.937931,1.81375663 C22.1598462,1.81375663 28.037922,7.61448939 28.037922,14.7413793 C28.037922,21.8682692 22.1598462,27.669002 14.937931,27.669002 Z" id="Fill-1" fill="#0A0B09" mask="url(#mask-2)"></path>
                </g>
                <path d="M15.9590851,8.96665385 C15.9590851,9.49983063 15.5201944,9.93330769 14.9795426,9.93330769 C14.4392568,9.93330769 14,9.49983063 14,8.96665385 C14,8.43311583 14.4392568,8 14.9795426,8 C15.5201944,8 15.9590851,8.43311583 15.9590851,8.96665385 Z" id="Fill-4" fill="#0A0B09"></path>
                <path d="M15.0014413,12 C14.4494609,12 14,12.3941426 14,12.8776388 L14,20.3340057 C14,20.8180502 14.4494609,21.21 15.0014413,21.21 C15.5534218,21.21 16.0003822,20.8180502 16.0003822,20.3340057 L16.0003822,12.8776388 C16.0003822,12.3941426 15.5534218,12 15.0014413,12 Z" id="Fill-5" fill="#0A0B09"></path>
            </g>
        </g>
    </g>
</svg>