<?xml version="1.0" encoding="UTF-8"?>
<svg width="98px" height="99px" viewBox="0 0 98 99" version="1.1" xmlns="http://www.w3.org/2000/svg" xmlns:xlink="http://www.w3.org/1999/xlink">
    <!-- Generator: Sketch 45.2 (43514) - http://www.bohemiancoding.com/sketch -->
    <title>Group 4 Copy 4</title>
    <desc>Created with Sketch.</desc>
    <defs>
        <polygon id="path-1" points="0.00741463415 0.0490601626 0.00741463415 14.3348358 10.7540927 14.3348358 10.7540927 0.0490601626 0.00741463415 0.0490601626"></polygon>
    </defs>
    <g id="Page-1" stroke="none" stroke-width="1" fill="none" fill-rule="evenodd">
        <g id="bTaskee_Service_AirConditioningCleaning" transform="translate(-312.000000, -894.000000)">
            <g id="Group" transform="translate(191.000000, 854.000000)">
                <g id="Group-4-Copy-4" transform="translate(121.000000, 40.000000)">
                    <g id="Group-9" transform="translate(0.000000, 0.134953)" fill="#F8F8F8">
                        <circle id="Oval-2" cx="49" cy="49" r="49"></circle>
                    </g>
                    <g id="Group-2" transform="translate(11.400000, 26.472527)">
                        <g id="Group-7" transform="translate(0.000000, 0.000000)">
                            <path d="M15.1504137,10.7021569 C17.8806547,10.7021569 20.1017681,8.47893154 20.1017681,5.74609439 C20.1017681,3.01349264 17.8806547,0.791208791 15.1504137,0.791208791 C12.4213485,0.791208791 10.2,3.01349264 10.2,5.74609439 C10.2,8.47893154 12.4213485,10.7021569 15.1504137,10.7021569 Z M15.1504137,3.61490512 C16.3243468,3.61490512 17.2798136,4.57104504 17.2798136,5.74609439 C17.2798136,6.92137914 16.3243468,7.87751906 15.1504137,7.87751906 C13.9764807,7.87751906 13.0219545,6.92137914 13.0219545,5.74609439 C13.0219545,4.57104504 13.9764807,3.61490512 15.1504137,3.61490512 Z" id="Fill-5" fill="#5EC871"></path>
                            <path d="M69.0055517,30.9384193 C69.2353058,31.4809851 69.7865276,31.8385372 70.3779622,31.8081724 C70.9668101,31.7787491 71.4858146,31.3715304 71.6586593,30.8077798 C72.0332737,29.5785915 70.6295865,28.5155861 69.5485428,29.2080932 C68.9827409,29.570353 68.7447561,30.3160574 69.0055517,30.9384193 C69.0415316,31.0231584 68.9707476,30.852974 69.0055517,30.9384193 Z" id="Fill-6" fill="#FF7F53"></path>
                            <g id="Group-6" transform="translate(0.000000, 5.000000)">
                                <g id="Group-5" transform="translate(65.715596, 0.289184)" fill="#5EC871">
                                    <rect id="Rectangle-4" x="3" y="0" width="1.82571907" height="7.28245114" rx="0.912859534"></rect>
                                    <rect id="Rectangle-4" transform="translate(3.912860, 3.641226) rotate(-90.000000) translate(-3.912860, -3.641226) " x="3" y="2.79776202e-14" width="1.82571907" height="7.28245114" rx="0.912859534"></rect>
                                </g>
                                <g id="Group-5" transform="translate(0.000000, 8.905919)" fill="#FFAE53">
                                    <rect id="Rectangle-4" x="3" y="-1.0658141e-14" width="1.82571907" height="7.28245114" rx="0.912859534"></rect>
                                    <rect id="Rectangle-4-Copy" x="63" y="21" width="1.82571907" height="7.28245114" rx="0.912859534"></rect>
                                    <rect id="Rectangle-4" transform="translate(3.912860, 3.641226) rotate(-90.000000) translate(-3.912860, -3.641226) " x="3" y="1.59872116e-14" width="1.82571907" height="7.28245114" rx="0.912859534"></rect>
                                    <rect id="Rectangle-4-Copy-2" transform="translate(63.912860, 24.641226) rotate(-90.000000) translate(-63.912860, -24.641226) " x="63" y="21" width="1.82571907" height="7.28245114" rx="0.912859534"></rect>
                                </g>
                            </g>
                        </g>
                    </g>
                    <g id="rocket" transform="translate(23.000000, 26.000000)">
                        <g id="Group-4" transform="translate(0.000000, 36.331707)">
                            <mask id="mask-2" fill="white">
                                <use xlink:href="#path-1"></use>
                            </mask>
                            <g id="Clip-2"></g>
                            <path d="M6.86619837,0.404962602 C6.39178537,-0.0695739837 5.62177561,-0.0695739837 5.14674472,0.404962602 L2.65011382,2.9015935 C2.17557724,3.37650081 2.17557724,4.14651057 2.65011382,4.62104715 C2.88762927,4.8585626 3.19854959,4.97732033 3.50984065,4.97732033 C3.82125528,4.97732033 4.13217561,4.8585626 4.36956748,4.62104715 L6.86619837,2.12441626 C7.34122927,1.64987967 7.34122927,0.879869919 6.86619837,0.404962602 Z" id="Fill-1" fill="#FF7F53" mask="url(#mask-2)"></path>
                            <path d="M10.3979122,3.93655285 C9.92337561,3.46201626 9.15336585,3.46201626 8.67882927,3.93655285 L0.356273171,12.2596033 C-0.118757724,12.7341398 -0.118757724,13.5041496 0.356273171,13.9790569 C0.593294309,14.216078 0.904585366,14.3348358 1.21550569,14.3348358 C1.52679675,14.3348358 1.83771707,14.216078 2.07523252,13.9790569 L10.3979122,5.6560065 C10.8728195,5.18097561 10.8728195,4.41146016 10.3979122,3.93655285 Z" id="Fill-3" fill="#FF7F53" mask="url(#mask-2)"></path>
                        </g>
                        <path d="M13.9299967,43.8003447 C13.4549659,43.3258081 12.6854504,43.3253138 12.2105431,43.8003447 L8.04945041,47.9614374 C7.57441951,48.4363447 7.57441951,49.2058602 8.04945041,49.6808911 C8.28647154,49.9182829 8.5977626,50.0370407 8.90868293,50.0370407 C9.21997398,50.0370407 9.53089431,49.9182829 9.76840976,49.6808911 L13.9299967,45.5197984 C14.4044098,45.0447675 14.4044098,44.275252 13.9299967,43.8003447 Z" id="Fill-5" fill="#FF7F53"></path>
                        <g id="Group-9" transform="translate(1.606504, 0.000000)" fill="#FF7F53">
                            <path d="M35.2489236,13.8116098 C33.8330992,12.3957854 31.9510179,11.6161366 29.9486959,11.6161366 C27.946374,11.6161366 26.0636748,12.3957854 24.6478504,13.8116098 C23.232026,15.2274341 22.4525008,17.1100098 22.4525008,19.1123317 C22.4525008,21.1146537 23.232026,22.9968585 24.6478504,24.4126829 C26.0636748,25.8285073 27.946374,26.6081561 29.9486959,26.6081561 C31.9510179,26.6081561 33.8330992,25.8285073 35.2489236,24.4126829 C38.1714016,21.4898341 38.1714016,16.7344585 35.2489236,13.8116098 Z M33.5294699,22.6937236 C32.5732293,23.6499642 31.3012488,24.1771447 29.9486959,24.1771447 C28.5955252,24.1771447 27.3235447,23.6499642 26.3673041,22.6937236 C25.4105691,21.7369886 24.8838829,20.4650081 24.8838829,19.1123317 C24.8838829,17.7592846 25.4105691,16.4877984 26.3673041,15.5310634 C27.3235447,14.5743285 28.5955252,14.0476423 29.9486959,14.0476423 C31.3012488,14.0476423 32.5732293,14.5743285 33.5294699,15.5310634 C35.5043577,17.5058276 35.5043577,20.7188358 33.5294699,22.6937236 Z" id="Fill-6"></path>
                            <path d="M48.163239,1.75850407 C48.051278,1.33797073 47.7230569,1.0102439 47.3030179,0.897788618 C43.1458797,-0.213417886 38.7448,-0.231830894 34.5765398,0.844650407 C33.9267707,1.01259187 33.2866407,1.21006829 32.6542959,1.42929431 C32.5997984,1.44424715 32.5456715,1.46303089 32.493522,1.48576911 C29.022361,2.71709268 25.8479089,4.71274146 23.2170732,7.33579187 C23.2150959,7.3372748 23.2137366,7.33875772 23.212748,7.34024065 C23.2054569,7.34691382 23.1987837,7.35371057 23.191987,7.36050732 C23.180865,7.37162927 23.171226,7.38361626 23.1605984,7.39473821 C23.150465,7.40586016 23.1393431,7.4159935 23.1292098,7.42760976 L19.4059512,11.7614634 C13.5481431,11.6968325 7.85580488,14.0109398 3.70533984,18.1614049 C2.35562927,19.5111154 1.19140813,21.0234537 0.244312195,22.6570211 C0.0531382114,22.9867252 0.0275577236,23.3868683 0.17523252,23.7378276 C0.322907317,24.0892813 0.626536585,24.3508943 0.995908943,24.4445659 L7.75298862,26.1650081 L6.43083577,29.7554211 C5.77773008,31.5285073 6.21939512,33.537626 7.55563577,34.8737431 L14.1877789,41.5058862 C15.1141138,42.4317268 16.3628618,42.9285073 17.6333593,42.9285073 C18.1957593,42.9285073 18.7619902,42.8310049 19.3061008,42.6306862 L22.8970081,41.3085333 L24.6174504,48.065613 C24.711122,48.4349854 24.9732293,48.7391089 25.3241886,48.8867837 C25.4752,48.9500553 25.6354797,48.9813203 25.795265,48.9813203 C26.0067057,48.9813203 26.2171577,48.9263285 26.4049951,48.8172098 C28.0380683,47.8706081 29.5504065,46.7062634 30.9006114,45.3565528 C35.0515707,41.2057171 37.3646894,35.5118959 37.3010472,29.6550764 L41.6339122,25.9318179 C41.6450341,25.9221789 41.6551675,25.9110569 41.6657951,25.9014179 C41.6779057,25.8902959 41.6898927,25.8806569 41.7015089,25.8690407 C41.7083057,25.8622439 41.7146081,25.8550764 41.7217756,25.8482797 C41.7227642,25.8467967 41.7247415,25.8454374 41.7256065,25.8439545 C44.3492748,23.213613 46.3443057,20.0386667 47.5762472,16.5678764 C47.5984911,16.5153561 47.6177691,16.4612293 47.632722,16.4062374 C47.851948,15.774387 48.0488065,15.1342569 48.2168715,14.4844878 C49.2933528,10.3162276 49.2749398,5.91564228 48.163239,1.75850407 Z M3.22363577,22.5030439 C3.87575285,21.5709008 4.61239675,20.6932553 5.42442276,19.8808585 C8.60357073,16.7017106 12.8013659,14.7364618 17.2332163,14.2899772 L8.92845528,23.9555707 L3.22363577,22.5030439 Z M8.71170081,30.5953756 L9.84317398,27.5228748 L11.4116163,29.0906992 L9.04140488,32.884026 C8.5592065,32.232774 8.42685528,31.3692163 8.71170081,30.5953756 Z M10.7912585,34.6715707 L13.1759285,30.855135 L14.8317398,32.5103285 L11.7306927,35.6108813 L10.7912585,34.6715707 Z M13.4501463,37.330335 L16.5506992,34.2297821 L18.2058927,35.8850992 L14.3894569,38.2697691 L13.4501463,37.330335 Z M18.465652,40.3493268 C17.6918114,40.6341724 16.828748,40.5018211 16.1770016,40.0196228 L19.9703285,37.6494114 L21.5386472,39.2178537 L18.465652,40.3493268 Z M29.1811577,43.6375935 C28.3686374,44.4496195 27.4906211,45.1862634 26.558478,45.8378862 L25.1059512,40.1325724 L34.772039,31.8278114 C34.3255545,36.2596618 32.3603057,40.4579512 29.1811577,43.6375935 Z M40.0076358,24.1235122 L23.8045593,38.0452293 L11.0157984,25.2569626 L20.8508163,13.8106211 C20.8604553,13.7999935 20.8696,13.7888715 20.8787447,13.7777496 L24.9375154,9.05388618 C27.1497951,6.84926829 29.7874276,5.13661138 32.6687545,4.01378862 L45.047239,16.3927675 C43.9249106,19.2740943 42.2122537,21.9117268 40.0076358,24.1235122 Z M45.8833626,13.7903545 L35.2711675,3.17766504 C38.7796488,2.28654959 42.4670699,2.25133008 45.9871675,3.07386016 C46.8096976,6.59395772 46.7749724,10.2813789 45.8833626,13.7903545 Z" id="Fill-8"></path>
                        </g>
                    </g>
                </g>
            </g>
        </g>
    </g>
</svg>