<?xml version="1.0" encoding="UTF-8"?>
<svg width="44px" height="28px" viewBox="0 0 44 28" version="1.1" xmlns="http://www.w3.org/2000/svg" xmlns:xlink="http://www.w3.org/1999/xlink">
    <!-- Generator: Sketch 45.2 (43514) - http://www.bohemiancoding.com/sketch -->
    <title>sofa</title>
    <desc>Created with Sketch.</desc>
    <defs></defs>
    <g id="Page-1" stroke="none" stroke-width="1" fill="none" fill-rule="evenodd" opacity="0.777004076">
        <g id="bTaskee_Service_Maid" transform="translate(-625.000000, -2685.000000)" fill="#000000">
            <g id="sofa" transform="translate(625.000000, 2685.000000)">
                <path d="M11.0573443,6.66234508 C11.2470492,6.66234508 11.4325464,6.58501785 11.5673115,6.44957437 C11.7020765,6.31413089 11.7786557,6.12769977 11.7786557,5.93740229 C11.7786557,5.74577574 11.7020765,5.55934462 11.5673115,5.42390114 C11.4325464,5.28942426 11.2470492,5.2124595 11.0573443,5.2124595 C10.8671585,5.2124595 10.6816612,5.28942426 10.546776,5.42390114 C10.4129727,5.55934462 10.3360328,5.74577574 10.3360328,5.93740229 C10.3360328,6.12769977 10.4129727,6.31413089 10.546776,6.44957437 C10.6816612,6.58501785 10.8671585,6.66234508 11.0573443,6.66234508 Z" id="Fill-1"></path>
                <path d="M18.3342951,6.66234508 C18.5244809,6.66234508 18.7099781,6.58501785 18.8447432,6.44957437 C18.9785464,6.31413089 19.0556066,6.12769977 19.0556066,5.93740229 C19.0556066,5.74577574 18.9785464,5.55934462 18.8447432,5.42390114 C18.7099781,5.28942426 18.5244809,5.2124595 18.3342951,5.2124595 C18.1445902,5.2124595 17.9590929,5.28942426 17.8243279,5.42390114 C17.6895628,5.55934462 17.6129836,5.74577574 17.6129836,5.93740229 C17.6129836,6.12769977 17.6895628,6.31413089 17.8243279,6.44957437 C17.9590929,6.58501785 18.1445902,6.66234508 18.3342951,6.66234508 Z" id="Fill-2"></path>
                <path d="M32.8891585,6.66234508 C33.0788634,6.66234508 33.2643607,6.58501785 33.3991257,6.44957437 C33.5335301,6.31413089 33.6104699,6.12769977 33.6104699,5.93740229 C33.6104699,5.74577574 33.5335301,5.55934462 33.3991257,5.42390114 C33.2643607,5.28942426 33.0788634,5.2124595 32.8891585,5.2124595 C32.6989727,5.2124595 32.5129945,5.28942426 32.3787104,5.42390114 C32.2449071,5.55934462 32.167847,5.74577574 32.167847,5.93740229 C32.167847,6.12769977 32.2449071,6.31413089 32.3787104,6.44957437 C32.5129945,6.58501785 32.6989727,6.66234508 32.8891585,6.66234508 Z" id="Fill-3"></path>
                <path d="M25.6117268,6.66234508 C25.8009508,6.66234508 25.9878907,6.58501785 26.1212131,6.44957437 C26.2559781,6.31413089 26.3330383,6.12769977 26.3330383,5.93740229 C26.3330383,5.74577574 26.2559781,5.55934462 26.1212131,5.42390114 C25.9878907,5.28942426 25.8009508,5.2124595 25.6117268,5.2124595 C25.4220219,5.2124595 25.2355628,5.28942426 25.1017596,5.42390114 C24.9674754,5.55934462 24.8904153,5.74577574 24.8904153,5.93740229 C24.8904153,6.12769977 24.9674754,6.31413089 25.1017596,6.44957437 C25.2355628,6.58501785 25.4220219,6.66234508 25.6117268,6.66234508 Z" id="Fill-4"></path>
                <path d="M11.0573443,12.3652284 C11.2470492,12.3652284 11.4325464,12.2877803 11.5673115,12.1523368 C11.7020765,12.0173767 11.7786557,11.8304622 11.7786557,11.6402856 C11.7786557,11.448659 11.7020765,11.2622279 11.5673115,11.1267844 C11.4325464,10.99267 11.2470492,10.9153428 11.0573443,10.9153428 C10.8671585,10.9153428 10.6816612,10.99267 10.546776,11.1267844 C10.4129727,11.2622279 10.3360328,11.448659 10.3360328,11.6402856 C10.3360328,11.8304622 10.4129727,12.0173767 10.546776,12.1523368 C10.6816612,12.2877803 10.8671585,12.3652284 11.0573443,12.3652284 Z" id="Fill-5"></path>
                <path d="M18.3342951,12.3652284 C18.5244809,12.3652284 18.7099781,12.2877803 18.8447432,12.1523368 C18.9785464,12.0173767 19.0556066,11.8304622 19.0556066,11.6402856 C19.0556066,11.448659 18.9785464,11.2622279 18.8447432,11.1267844 C18.7099781,10.99267 18.5244809,10.9153428 18.3342951,10.9153428 C18.1445902,10.9153428 17.9590929,10.99267 17.8243279,11.1267844 C17.6895628,11.2622279 17.6129836,11.448659 17.6129836,11.6402856 C17.6129836,11.8304622 17.6895628,12.0173767 17.8243279,12.1523368 C17.9590929,12.2877803 18.1445902,12.3652284 18.3342951,12.3652284 Z" id="Fill-6"></path>
                <path d="M32.8891585,12.3652284 C33.0788634,12.3652284 33.2643607,12.2877803 33.3991257,12.1523368 C33.5335301,12.0173767 33.6104699,11.8304622 33.6104699,11.6402856 C33.6104699,11.448659 33.5335301,11.2622279 33.3991257,11.1267844 C33.2643607,10.99267 33.0788634,10.9153428 32.8891585,10.9153428 C32.6989727,10.9153428 32.5129945,10.99267 32.3787104,11.1267844 C32.2449071,11.2622279 32.167847,11.448659 32.167847,11.6402856 C32.167847,11.8304622 32.2449071,12.0173767 32.3787104,12.1523368 C32.5129945,12.2877803 32.6989727,12.3652284 32.8891585,12.3652284 Z" id="Fill-7"></path>
                <path d="M25.6117268,12.3652284 C25.8009508,12.3652284 25.9878907,12.2877803 26.1212131,12.1523368 C26.2559781,12.0173767 26.3330383,11.8304622 26.3330383,11.6402856 C26.3330383,11.448659 26.2559781,11.2622279 26.1212131,11.1267844 C25.9878907,10.99267 25.8009508,10.9153428 25.6117268,10.9153428 C25.4220219,10.9153428 25.2355628,10.99267 25.1017596,11.1267844 C24.9674754,11.2622279 24.8904153,11.448659 24.8904153,11.6402856 C24.8904153,11.8304622 24.9674754,12.0173767 25.1017596,12.1523368 C25.2355628,12.2877803 25.4220219,12.3652284 25.6117268,12.3652284 Z" id="Fill-8"></path>
                <path d="M40.4793989,11.0629895 L40.4793989,5.61601098 C40.4793989,2.52606316 37.9777705,0.0118407323 34.9033005,0.0118407323 L9.04272131,0.0118407323 C5.96825137,0.0118407323 3.46662295,2.52606316 3.46662295,5.61601098 L3.46662295,11.0629895 C1.52617486,11.239513 0,12.8829584 0,14.8783634 C0,16.1508796 0.621770492,17.323233 1.64879781,18.0340394 L1.64879781,22.9009428 C1.64879781,24.0492522 2.44284153,25.0143927 3.50797814,25.2716265 L3.50797814,26.9438279 C3.50797814,27.3439963 3.83100546,27.6687707 4.22928962,27.6687707 L7.80194536,27.6687707 C8.20022951,27.6687707 8.52325683,27.3439963 8.52325683,26.9438279 L8.52325683,25.3395295 L35.4226448,25.3395295 L35.4226448,26.9438279 C35.4226448,27.3439963 35.7457923,27.6687707 36.1439563,27.6687707 L39.7167322,27.6687707 C40.1154973,27.6687707 40.4380437,27.3439963 40.4380437,26.9438279 L40.4380437,25.2716265 C41.5030601,25.0143927 42.297224,24.0492522 42.297224,22.9009428 L42.297224,18.0340394 C43.3242514,17.323233 43.9465027,16.1508796 43.9465027,14.8783634 C43.9460219,12.8829584 42.4202077,11.239513 40.4793989,11.0629895 Z M9.04272131,1.46172632 L34.9033005,1.46172632 C37.1822842,1.46172632 39.036776,3.32507094 39.036776,5.61601098 L39.036776,11.2083405 C37.4668415,11.6826947 36.3195956,13.1481666 36.3195956,14.8783634 L36.3195956,16.0503542 L7.62594536,16.0503542 L7.62594536,14.8783634 C7.62594536,13.1481666 6.47918033,11.6826947 4.9092459,11.2083405 L4.9092459,5.61601098 C4.9092459,3.32507094 6.7637377,1.46172632 9.04272131,1.46172632 Z M36.1439563,23.8896439 L7.62642623,23.8896439 L7.62642623,22.6771771 L36.3200765,22.6771771 L36.3200765,23.8896439 L36.1439563,23.8896439 Z M7.62594536,21.2272915 L36.3200765,21.2272915 L36.3200765,17.5002398 L7.62594536,17.5002398 L7.62594536,21.2272915 Z M3.09190164,22.9009428 L3.09190164,17.6592439 C3.09238251,17.6417245 3.09238251,17.6248092 3.09190164,17.6072897 C3.08480874,17.345827 2.9382623,17.1084082 2.70816393,16.9862554 C1.92770492,16.5718297 1.44262295,15.7637602 1.44262295,14.8783634 C1.44262295,13.5648879 2.50631694,12.496443 3.81321311,12.496443 C5.12010929,12.496443 6.18380328,13.5648879 6.18380328,14.8783634 L6.18380328,23.8901272 L4.07565027,23.8901272 C3.53286339,23.8896439 3.09190164,23.4464622 3.09190164,22.9009428 Z M4.95060109,26.2188851 L7.08063388,26.2188851 L7.08063388,25.3395295 L4.95060109,25.3395295 L4.95060109,26.2188851 Z M36.8652678,26.2188851 L38.9954208,26.2188851 L38.9954208,25.3395295 L36.8652678,25.3395295 L36.8652678,26.2188851 Z M41.2382186,16.9862554 C41.0081202,17.1084082 40.861694,17.345827 40.8546011,17.607773 C40.8541202,17.6214261 40.8541202,17.6356833 40.8546011,17.6498197 L40.8546011,22.9009428 C40.8546011,23.4464622 40.4131585,23.8896439 39.8707322,23.8896439 L37.7626995,23.8896439 L37.7626995,14.8783634 C37.7626995,13.5648879 38.8259126,12.4959597 40.1332896,12.4959597 C41.4401858,12.4959597 42.5033989,13.5648879 42.5033989,14.8783634 C42.5038798,15.7637602 42.0187978,16.5718297 41.2382186,16.9862554 Z" id="Fill-9"></path>
            </g>
        </g>
    </g>
</svg>