<?xml version="1.0" encoding="UTF-8"?>
<svg width="37px" height="40px" viewBox="0 0 37 40" version="1.1" xmlns="http://www.w3.org/2000/svg" xmlns:xlink="http://www.w3.org/1999/xlink">
    <!-- Generator: Sketch 45.2 (43514) - http://www.bohemiancoding.com/sketch -->
    <title>stove</title>
    <desc>Created with Sketch.</desc>
    <defs></defs>
    <g id="Page-1" stroke="none" stroke-width="1" fill="none" fill-rule="evenodd" opacity="0.777004076">
        <g id="bTaskee_Service_Maid" transform="translate(-776.000000, -2673.000000)" fill="#000000">
            <g id="stove" transform="translate(776.000000, 2673.000000)">
                <path d="M29.7892424,11.7986707 L0.71955271,11.7986707 C0.322359614,11.7986707 0,12.1235045 0,12.5237462 L0,39.1543202 C0,39.5545619 0.322359614,39.8793958 0.71955271,39.8793958 L29.7892424,39.8793958 C30.1870351,39.8793958 30.5087951,39.5545619 30.5087951,39.1543202 L30.5087951,12.5237462 C30.5087951,12.1235045 30.1870351,11.7986707 29.7892424,11.7986707 Z M1.43910542,38.4292447 L29.0696897,38.4292447 L29.0696897,13.2488218 L1.43910542,13.2488218 L1.43910542,38.4292447 Z" id="Fill-1"></path>
                <path d="M3.25201848,37.3268882 L27.2567766,37.3268882 C27.6545693,37.3268882 27.9763293,37.0026586 27.9763293,36.6018127 L27.9763293,15.0761329 C27.9763293,14.6754079 27.6545693,14.3510574 27.2567766,14.3510574 L3.25201848,14.3510574 C2.85482538,14.3510574 2.53246576,14.6754079 2.53246576,15.0761329 L2.53246576,36.6018127 C2.53246576,37.0026586 2.85482538,37.3268882 3.25201848,37.3268882 Z M3.97157119,35.8767372 L26.5372239,35.8767372 L26.5372239,15.8012085 L3.97157119,15.8012085 L3.97157119,35.8767372 Z" id="Fill-2"></path>
                <path d="M23.1826692,21.7850151 L7.32624585,21.7850151 C6.92893283,21.7850151 6.60669314,22.1098489 6.60669314,22.5100906 L6.60669314,32.2745619 C6.60669314,32.675287 6.92893283,32.9996375 7.32624585,32.9996375 L23.1826692,32.9996375 C23.5803419,32.9996375 23.9022219,32.675287 23.9022219,32.2745619 L23.9022219,22.5100906 C23.9022219,22.1098489 23.5803419,21.7850151 23.1826692,21.7850151 Z M8.04579856,31.5494864 L22.4631164,31.5494864 L22.4631164,23.2351662 L8.04579856,23.2351662 L8.04579856,31.5494864 Z" id="Fill-3"></path>
                <path d="M25.2583389,17.1249547 C24.8611458,17.1249547 24.5387862,17.4496677 24.5387862,17.8500302 L24.5387862,18.7893656 L6.631038,18.7893656 L6.631038,17.8500302 C6.631038,17.4496677 6.30867839,17.1249547 5.91148529,17.1249547 C5.51381249,17.1249547 5.19193258,17.4496677 5.19193258,17.8500302 L5.19193258,19.5144411 C5.19193258,19.9148036 5.51381249,20.2395166 5.91148529,20.2395166 L25.2583389,20.2395166 C25.6561316,20.2395166 25.9778916,19.9148036 25.9778916,19.5144411 L25.9778916,17.8500302 C25.9778916,17.4496677 25.6561316,17.1249547 25.2583389,17.1249547 Z" id="Fill-4"></path>
                <path d="M0.875575723,3.49570997 L1.36739,3.49570997 L1.36739,9.24821752 C1.36739,10.3589124 2.2640726,11.2629607 3.36678713,11.2629607 L11.3779272,11.2629607 C12.4801621,11.2629607 13.3773244,10.3589124 13.3773244,9.24821752 L13.3773244,3.49570997 L13.8691386,3.49570997 C14.2664517,3.49570997 14.5886914,3.17099698 14.5886914,2.77063444 C14.5886914,2.37039275 14.2664517,2.04555891 13.8691386,2.04555891 L7.87154688,2.04555891 L7.87154688,0.773413897 C7.87154688,0.37305136 7.54966696,0.0483383686 7.15199417,0.0483383686 C6.75468114,0.0483383686 6.43244146,0.37305136 6.43244146,0.773413897 L6.43244146,2.04555891 L0.875575723,2.04555891 C0.478262702,2.04555891 0.156023013,2.37039275 0.156023013,2.77063444 C0.156023013,3.17099698 0.478262702,3.49570997 0.875575723,3.49570997 Z M11.9382189,3.49570997 L11.9382189,9.24821752 C11.9382189,9.55927492 11.687095,9.81280967 11.3779272,9.81280967 L3.36678713,9.81280967 C3.05761932,9.81280967 2.80649542,9.55927492 2.80649542,9.24821752 L2.80649542,3.49570997 L11.9382189,3.49570997 Z" id="Fill-5"></path>
                <path d="M35.3409513,6.88229607 L17.7231829,6.88229607 C17.5034795,6.88229607 17.2964881,6.98332326 17.1596532,7.15601208 C17.0232979,7.32930514 16.9726894,7.55540785 17.0219788,7.77111782 L17.6960797,10.7016314 C17.7715128,11.0302115 18.0618524,11.2629607 18.3968041,11.2629607 L27.6199109,11.2629607 C27.9548627,11.2629607 28.2452022,11.0302115 28.321115,10.7016314 L28.8659363,8.33244713 L35.3409513,8.33244713 C35.738744,8.33244713 36.060504,8.00761329 36.060504,7.6073716 C36.060504,7.20700906 35.738744,6.88229607 35.3409513,6.88229607 Z M27.0478665,9.81280967 L18.9688486,9.81280967 L18.6282603,8.33244713 L27.3884547,8.33244713 L27.0478665,9.81280967 Z" id="Fill-6"></path>
                <path d="M10.5824617,26.6198187 L19.9263334,26.6198187 C20.3241261,26.6198187 20.6458861,26.2949849 20.6458861,25.8947432 C20.6458861,25.4938973 20.3241261,25.1696677 19.9263334,25.1696677 L10.5824617,25.1696677 C10.1852686,25.1696677 9.862909,25.4938973 9.862909,25.8947432 C9.862909,26.2949849 10.1852686,26.6198187 10.5824617,26.6198187 Z" id="Fill-7"></path>
                <path d="M10.5824617,29.6154683 L19.9263334,29.6154683 C20.3241261,29.6154683 20.6458861,29.2906344 20.6458861,28.8903927 C20.6458861,28.4900302 20.3241261,28.1653172 19.9263334,28.1653172 L10.5824617,28.1653172 C10.1852686,28.1653172 9.862909,28.4900302 9.862909,28.8903927 C9.862909,29.2906344 10.1852686,29.6154683 10.5824617,29.6154683 Z" id="Fill-8"></path>
            </g>
        </g>
    </g>
</svg>