<?xml version="1.0" encoding="UTF-8"?>
<svg width="24px" height="37px" viewBox="0 0 24 37" version="1.1" xmlns="http://www.w3.org/2000/svg" xmlns:xlink="http://www.w3.org/1999/xlink">
    <!-- Generator: Sketch 45.2 (43514) - http://www.bohemiancoding.com/sketch -->
    <title>toilet</title>
    <desc>Created with Sketch.</desc>
    <defs>
        <polygon id="path-1" points="0 36.5217391 23.9558596 36.5217391 23.9558596 0 0 0"></polygon>
    </defs>
    <g id="Page-1" stroke="none" stroke-width="1" fill="none" fill-rule="evenodd" opacity="0.777004076">
        <g id="bTaskee_Service_Maid" transform="translate(-923.000000, -2676.000000)">
            <g id="toilet" transform="translate(923.000000, 2676.000000)">
                <mask id="mask-2" fill="white">
                    <use xlink:href="#path-1"></use>
                </mask>
                <g id="Clip-2"></g>
                <path d="M1.79915789,16.4347826 L20.9617544,16.4347826 C21.2924912,16.4347826 21.5605614,16.7073404 21.5605614,17.0434545 C21.5605614,17.3796399 21.2924912,17.6521977 20.9617544,17.6521977 L1.79915789,17.6521977 C1.46842105,17.6521977 1.20035088,17.3796399 1.20035088,17.0434545 C1.20035088,16.7073404 1.46842105,16.4347826 1.79915789,16.4347826 Z M2.99684211,3.65217391 L19.7640702,3.65217391 C19.7640702,4.26084579 19.7640702,4.86958899 19.7640702,5.47826087 L18.566386,5.47826087 C17.5742456,5.47826087 16.7698947,6.29579144 16.7698947,7.30434783 C16.7698947,8.31283288 17.5742456,9.13043478 18.566386,9.13043478 L19.5604912,9.13043478 C19.3850526,11.2175238 18.9130526,13.2678057 18.1592281,15.2173675 L4.5957193,15.2173675 C3.08063158,11.3947826 2.99684211,7.62084579 2.99684211,3.65217391 Z M1.79915789,2.43483016 L20.9617544,2.43483016 L20.9617544,1.21741508 L1.79915789,1.21741508 L1.79915789,2.43483016 Z M22.7582456,7.30434783 C22.7582456,7.64053329 22.4901053,7.9130197 22.1593684,7.9130197 L18.566386,7.9130197 C18.2357193,7.9130197 17.9675789,7.64053329 17.9675789,7.30434783 C17.9675789,6.96816236 18.2357193,6.69567595 18.566386,6.69567595 L22.1593684,6.69567595 C22.4901053,6.69567595 22.7582456,6.96816236 22.7582456,7.30434783 Z M11.3804211,26.1738893 C6.66168421,26.1738893 2.78722807,22.9478499 2.43396491,18.8695414 L20.3269474,18.8695414 C19.9736842,22.9478499 16.0992281,26.1738893 11.3804211,26.1738893 Z M16.3627368,35.304324 L6.39817544,35.304324 C7.69761404,32.6017154 7.7874386,29.8625849 7.7874386,26.7826325 C10.1184561,27.5805469 12.6424561,27.5805469 14.9734035,26.7826325 C14.9734035,29.8625849 15.0632281,32.6017154 16.3627368,35.304324 Z M1.20035088,18.7661107 C1.40392982,22.0348064 3.51178947,24.8530435 6.58982456,26.313913 C6.58982456,29.8930435 6.58982456,32.7417391 4.87712281,35.6026325 C4.70849123,35.8918105 4.80238596,36.2651596 5.08687719,36.4366406 C5.17922807,36.4923505 5.28470175,36.5217391 5.39214035,36.5217391 L17.3687719,36.5217391 C17.6995088,36.5216678 17.9675088,36.2491101 17.9675088,35.9129246 C17.9674386,35.803716 17.9385263,35.6965761 17.8837193,35.6026325 C16.1710877,32.735676 16.1710877,29.8930435 16.1710877,26.313913 C19.2191579,24.8469803 21.3329825,22.0530673 21.5605614,18.7661107 C22.4965614,18.4314232 22.9883509,17.3888417 22.6590877,16.4374932 C22.4058246,15.7055605 21.7250526,15.2162262 20.9617544,15.2173675 L19.4527018,15.2173675 C20.1552982,13.2570346 20.5963509,11.20982 20.7641404,9.13043478 L22.1593684,9.13043478 C23.1515789,9.13043478 23.9558596,8.31283288 23.9558596,7.30434783 C23.9558596,6.29579144 23.1515789,5.47826087 22.1593684,5.47826087 L20.9617544,5.47826087 C20.9617544,4.86958899 20.9617544,4.26084579 20.9617544,3.65217391 L21.5605614,3.65217391 C21.8912982,3.65217391 22.1593684,3.37961617 22.1593684,3.04350204 L22.1593684,0.608671875 C22.1593684,0.272486413 21.8912982,0 21.5605614,0 L1.20035088,0 C0.869614035,0 0.601473684,0.272486413 0.601473684,0.608671875 L0.601473684,3.04350204 C0.601473684,3.37961617 0.869614035,3.65217391 1.20035088,3.65217391 L1.79915789,3.65217391 C1.79915789,7.43823709 1.87698246,11.3339368 3.30821053,15.2173675 L1.79915789,15.2173675 C0.807017544,15.2158696 0.00147368421,16.0322588 2.11758237e-21,17.0407439 C-0.00112280702,17.8166882 0.480280702,18.5086039 1.20035088,18.7661107 L1.20035088,18.7661107 Z" id="Fill-1" fill="#0A0B09" mask="url(#mask-2)"></path>
            </g>
        </g>
    </g>
</svg>