<?xml version="1.0" encoding="UTF-8"?>
<svg width="18px" height="39px" viewBox="0 0 18 39" version="1.1" xmlns="http://www.w3.org/2000/svg" xmlns:xlink="http://www.w3.org/1999/xlink">
    <!-- Generator: Sketch 45.2 (43514) - http://www.bohemiancoding.com/sketch -->
    <title>tools-and-utensils</title>
    <desc>Created with Sketch.</desc>
    <defs></defs>
    <g id="Page-1" stroke="none" stroke-width="1" fill="none" fill-rule="evenodd" opacity="0.777004076">
        <g id="bTaskee_Service_Maid" transform="translate(-342.000000, -2674.000000)" fill="#0A0B09">
            <g id="tools-and-utensils" transform="translate(342.000000, 2674.000000)">
                <path d="M14.6475918,9.46460819 L11.3991429,9.46460819 L11.3991429,6.33510526 C11.3991429,5.9029883 11.0605959,5.55267251 10.6430694,5.55267251 L6.48448163,5.55267251 L6.48448163,1.64073684 L14.8960653,1.64073684 L16.3742694,3.22802924 L14.6475918,9.46460819 Z M15.2947837,36.6463158 C15.2143347,37.1033684 14.8303837,37.4351345 14.382,37.4351345 L2.44006531,37.4351345 C1.92842449,37.4351345 1.51229388,37.004538 1.51229388,36.4751111 C1.51229388,36.4751111 1.51427755,30.5795731 1.51809796,30.4350526 L9.65101224,30.4350526 C9.27977143,31.2687251 8.86393469,32.080655 8.39637551,32.8552573 C8.17508571,33.2218421 8.28293878,33.7044386 8.63706122,33.933345 C8.76166531,34.0138538 8.9001551,34.0522456 9.03702857,34.0522456 C9.28910204,34.0522456 9.53559184,33.9217895 9.67900408,33.6842164 C10.3047429,32.6475614 10.8416571,31.5519883 11.3035592,30.4350526 L16.079951,30.4350526 C15.8918694,32.9300643 15.5561143,35.1580819 15.2947837,36.6463158 Z M7.15327347,22.8121871 C7.72765714,22.5066491 8.32158367,22.1906199 8.94342857,21.836655 C10.6092,20.8881111 11.5192653,18.9624386 11.208049,17.0449006 C11.0489143,16.0625263 11.1130531,15.0749064 11.3923837,14.1589766 L12.6605388,14.1589766 C12.6702367,16.3386433 12.496702,22.9165673 10.2878449,28.8703392 L1.65269388,28.8703392 C2.18578776,25.4546842 4.20560816,24.3803216 7.15327347,22.8121871 Z M10.8379102,12.5941871 L15.374498,12.5941871 L15.374498,11.0293977 L10.8379102,11.0293977 L10.8379102,12.5941871 Z M16.2241714,26.4762865 C16.223951,26.4852573 16.2238041,26.4942281 16.2238776,26.5032749 C16.2287265,27.2668538 16.2123429,28.0603099 16.1751673,28.8703392 L11.8986612,28.8703392 C12.9564,25.840731 13.5112408,22.7769123 13.801298,20.3876491 C14.1405061,17.5937135 14.1820163,15.3143041 14.1746694,14.1589766 L15.1625388,14.1589766 C15.5135755,15.9819415 16.3636898,21.3059357 16.2241714,26.4762865 Z M3.46004082,4.37909942 L4.97226122,4.37909942 L4.97226122,2.81430994 L3.46004082,2.81430994 L3.46004082,4.37909942 Z M17.7656327,2.46703509 L15.7619755,0.315421053 C15.6193714,0.162385965 15.4229143,0.0759473684 15.2174939,0.0759473684 L5.72833469,0.0759473684 C5.31073469,0.0759473684 4.97226122,0.426263158 4.97226122,0.858380117 L4.97226122,1.24952047 L2.70389388,1.24952047 C2.28629388,1.24952047 1.94782041,1.59983626 1.94782041,2.03195322 L1.94782041,5.16145614 C1.94782041,5.5935731 2.28629388,5.94388889 2.70389388,5.94388889 L4.97226122,5.94388889 L4.97226122,6.33510526 C4.97226122,6.76722222 5.31073469,7.11746199 5.72833469,7.11746199 L8.81757551,7.11746199 L7.71208163,8.26138596 C7.41680816,8.56692398 7.41680816,9.06236842 7.71208163,9.36790643 C7.8597551,9.52071345 8.0532,9.59711696 8.24671837,9.59711696 C8.44016327,9.59711696 8.6337551,9.52071345 8.7813551,9.36790643 L9.88684898,8.22398246 L9.88684898,9.49190058 C9.56395102,9.58092398 9.32561633,9.88478947 9.32561633,10.2470409 L9.32561633,13.3766199 C9.32561633,13.7186491 9.5380898,14.0086784 9.83365714,14.1150351 C9.58364082,15.1424912 9.54205714,16.2270409 9.71654694,17.3039123 C9.92152653,18.5666608 9.31782857,19.8373918 8.21431837,20.4657251 C7.61120816,20.8090468 7.02683265,21.1198304 6.46177959,21.4205029 C4.7716898,22.3195556 3.31214694,23.0961345 2.17719184,24.2863567 C0.903012245,25.6227719 0.226359184,27.3076023 0.0478285714,29.5887602 C0.0478285714,29.5888363 0.0478285714,29.5889883 0.0478285714,29.5890643 C0.0478285714,29.5891404 0.0478285714,29.5892924 0.0478285714,29.5894444 C0.0478285714,29.5895205 0.0478285714,29.5895205 0.0478285714,29.5896725 L0.0478285714,29.5897485 C0.0160897959,29.9926725 0,30.4257778 0,30.8772047 L0,36.4751871 C0,37.8674035 1.09454694,39 2.43991837,39 L14.3819265,39 C15.5614041,39 16.5710204,38.1280877 16.7824653,36.926614 C17.0799429,35.2334971 17.4710204,32.6058246 17.6452163,29.7026433 C17.6452163,29.7023392 17.6452898,29.7021111 17.6452898,29.701883 C17.7117061,28.6063099 17.7422694,27.5312632 17.736098,26.5066199 C17.8744408,21.3158187 17.0384327,15.9487193 16.6591837,13.9356959 C16.7993633,13.7936842 16.8865714,13.5958713 16.8865714,13.376848 L16.8865714,10.247269 C16.8865714,9.84616959 16.594751,9.51607602 16.2188816,9.47069006 L17.9478367,3.22559649 C18.0223347,2.95700585 17.9528327,2.66804094 17.7656327,2.46703509 L17.7656327,2.46703509 Z" id="Fill-1"></path>
                <path d="M8.00794286,34.7564503 C7.68298776,34.4850468 7.20690612,34.537731 6.94469388,34.8739064 L6.91846531,34.9073567 C6.65507755,35.2426199 6.70540408,35.733883 7.02947755,36.0065029 C7.1692898,36.1241111 7.33753469,36.1812047 7.5050449,36.1812047 C7.7256,36.1812047 7.94453878,36.0819942 8.09426939,35.8914035 L8.12152653,35.8566608 C8.38373878,35.5204854 8.33289796,35.0278538 8.00794286,34.7564503" id="Fill-3"></path>
            </g>
        </g>
    </g>
</svg>