<?xml version="1.0" encoding="UTF-8"?>
<svg width="57px" height="46px" viewBox="0 0 57 46" version="1.1" xmlns="http://www.w3.org/2000/svg" xmlns:xlink="http://www.w3.org/1999/xlink">
    <!-- Generator: Sketch 45.2 (43514) - http://www.bohemiancoding.com/sketch -->
    <title>Page 1</title>
    <desc>Created with Sketch.</desc>
    <defs>
        <polygon id="path-1" points="0.0859172943 0.00849256662 38.713672 0.00849256662 38.713672 30.9793443 0.0859172943 30.9793443"></polygon>
        <polygon id="path-3" points="17.0954762 14.6423562 0.202163689 14.6423562 0.202163689 0.227835063 17.0954762 0.227835063"></polygon>
    </defs>
    <g id="Page-1" stroke="none" stroke-width="1" fill="none" fill-rule="evenodd">
        <g id="bTaskee_About" transform="translate(-689.000000, -1992.000000)">
            <g id="Group-5" transform="translate(678.000000, 1971.000000)">
                <g id="Page-1" transform="translate(11.462366, 20.858696)">
                    <path d="M18.9643814,12.9860715 L19.5819419,12.6457831 C17.0715,8.15497245 9.35170189,7.61115534 2.38550239,11.4357388 L2.38550239,11.4407172 C1.94592746,11.5660558 1.45857897,11.8331323 1.02424747,12.2261332 C0.0836328458,13.0876894 -0.275251397,14.2221792 0.227827408,14.7598465 C0.729158399,15.2969281 1.90019302,15.0351228 2.84139025,14.1732737 C3.78171358,13.3134746 4.1376848,12.180449 3.64247115,11.6413175 C3.62703214,11.6252109 3.61159312,11.6132042 3.59061937,11.6026617 C9.98324494,8.45660499 16.7420373,9.00862182 18.9643814,12.9860715" id="Fill-1" fill="#FF611C"></path>
                    <path d="M6.46058636,4.06454238 C7.70532043,3.77374519 8.58097467,2.96343719 8.40735859,2.2500616 C8.40502818,2.23893341 8.40269776,2.22634098 8.39832823,2.21784842 C15.5419307,2.58976426 21.1783359,6.38272022 21.1302711,10.9376644 L21.8340571,10.9443999 C21.8894045,5.81430396 15.4615313,1.57504898 7.50461325,1.48368067 C7.04726888,1.35599933 6.46291678,1.34135697 5.85089097,1.48368067 C4.60033086,1.77184224 3.72613313,2.58537156 3.88838842,3.29581868 C4.06287841,4.00919428 5.21002625,4.35123972 6.46058636,4.06454238" id="Fill-3" fill="#FF611C"></path>
                    <g id="Group-7" transform="translate(16.895524, 0.284355)">
                        <mask id="mask-2" fill="white">
                            <use xlink:href="#path-1"></use>
                        </mask>
                        <g id="Clip-6"></g>
                        <path d="M34.8053629,11.5858229 C35.4240886,14.6905882 34.1822676,17.7523049 24.5870662,20.4828114 C21.0267714,21.177152 19.6937728,20.5724227 18.1752147,21.2137579 C16.6584045,21.8512861 16.4804188,21.9520255 16.4804188,21.9520255 C16.4804188,21.9520255 16.4387626,21.977796 16.38895,22.0079593 C16.3161244,22.0316799 16.2441728,22.0556934 16.183582,22.0829281 C16.5375141,21.3144973 16.7851209,20.5241029 16.9400936,19.7369298 C20.5365099,13.526228 30.358053,-3.36548701 34.5064869,3.70794244 C35.8179291,6.28968269 34.1854719,8.47754356 34.8053629,11.5858229 M9.36361615,15.9208389 C10.3723955,14.6905882 12.0281569,14.3696277 13.0686881,15.2033635 C14.1092194,16.039442 14.1398061,17.7148204 13.1289877,18.9459497 C12.1274909,20.1788361 10.4676513,20.5006751 9.42828522,19.665768 C8.38571485,18.8314465 8.35658463,17.1534325 9.36361615,15.9208389 M29.9307128,0.25410345 C25.5116592,1.41084959 20.8266469,9.99361313 17.1314791,17.7523049 C17.0941925,15.30586 16.0842479,13.0565012 14.1322323,11.6865624 C10.5530028,9.15489896 5.17352609,10.5503155 2.12650566,14.7989416 C-0.930127749,19.0458106 -0.505117919,24.5346443 3.08110279,27.0651363 C5.1877999,28.5504569 7.91700969,28.6816524 10.4396863,27.66518 C10.0172982,28.6561747 9.74434805,29.7159884 9.61763162,30.8156294 C9.64326621,30.8206078 9.65520959,30.8223649 9.68492241,30.8247077 C12.9859583,31.4057164 16.6988955,30.3476597 19.5315175,27.6812866 C21.0940622,26.2106084 22.1768323,24.4441545 22.7585627,22.6021461 C23.316115,22.6162027 23.9954316,22.5690544 24.8594337,22.4211666 C27.6288432,21.9312333 33.3016612,19.2510964 35.0264612,18.2267172 C39.0339048,15.8567054 35.0727782,12.8819643 37.9435609,8.08015001 C40.8242478,3.2795071 35.0622914,-1.08713638 29.9307128,0.25410345" id="Fill-5" fill="#FF611C" mask="url(#mask-2)"></path>
                    </g>
                    <path d="M26.2665688,34.9434231 C26.4232655,34.8781731 26.5867752,34.8151927 26.7474462,34.7550492 C26.7179236,34.7193035 26.7020268,34.6875296 26.6838591,34.6500818 C26.5339752,34.7459709 26.40453,34.8401579 26.2665688,34.9434231" id="Fill-8" fill="#FF611C"></path>
                    <path d="M41.8867724,36.3049023 C44.9702056,33.4013231 46.1840616,29.3623755 45.4010414,25.8335677 C44.6040388,24.9453624 43.69605,24.1898168 42.7341703,23.5777663 C42.7044575,26.4948165 41.4384584,29.5295912 38.9894812,31.8378123 C35.3881128,35.2266392 30.3526639,36.0205478 26.5418493,34.142812 C26.6869178,35.1481562 26.9409332,36.16375 27.3312781,37.150352 C31.1680186,40.7043447 37.5670529,40.3719632 41.8867724,36.3049023" id="Fill-10" fill="#FF611C"></path>
                    <g id="Group-14" transform="translate(31.751934, 30.740456)">
                        <mask id="mask-4" fill="white">
                            <use xlink:href="#path-3"></use>
                        </mask>
                        <g id="Clip-13"></g>
                        <path d="M16.5497488,0.227835063 C16.5637313,3.63013296 14.8307748,7.26992987 11.594408,9.85635568 C8.0810128,12.6673952 3.71818058,13.508745 0.202163689,12.40354 C3.6121466,14.8417851 7.98488309,15.4140084 11.6226643,13.4958597 C11.6308207,13.4905885 11.6401424,13.4835602 11.6468424,13.4829745 L14.7908664,13.2413756 L14.9571999,10.6303506 C17.0368059,7.82311809 17.6666012,3.9522648 16.5497488,0.227835063" id="Fill-12" fill="#FF611C" mask="url(#mask-4)"></path>
                    </g>
                </g>
            </g>
        </g>
    </g>
</svg>