<?xml version="1.0" encoding="UTF-8"?>
<svg width="30px" height="23px" viewBox="0 0 30 23" version="1.1" xmlns="http://www.w3.org/2000/svg" xmlns:xlink="http://www.w3.org/1999/xlink">
    <!-- Generator: Sketch 46 (44423) - http://www.bohemiancoding.com/sketch -->
    <title>check</title>
    <desc>Created with Sketch.</desc>
    <defs>
        <polygon id="path-1" points="0.00347112342 0.00709314482 0.00347112342 22.5550377 22.4394823 22.5550377 22.4394823 0.00709314482 0.00347112342 0.00709314482"></polygon>
    </defs>
    <g id="Page-1" stroke="none" stroke-width="1" fill="none" fill-rule="evenodd">
        <g id="bTaskee_Homepage" transform="translate(-696.000000, -2237.000000)">
            <g id="Group-21" transform="translate(694.000000, 2163.000000)">
                <g id="check" transform="translate(2.000000, 74.000000)">
                    <g id="Group-3" transform="translate(0.000000, 0.058141)">
                        <mask id="mask-2" fill="white">
                            <use xlink:href="#path-1"></use>
                        </mask>
                        <g id="Clip-2"></g>
                        <path d="M19.4823166,0.00709314482 L2.95716574,0.00709314482 C1.32394432,0.00709314482 0,1.33769734 0,2.97906268 L0,19.5865566 C0,21.2279219 1.32394432,22.5585261 2.95716574,22.5585261 L19.4823166,22.5585261 C21.1154801,22.5585261 22.4394823,21.2279219 22.4394823,19.5865566 L22.4394823,2.97906268 C22.4394823,1.33769734 21.1154801,0.00709314482 19.4823166,0.00709314482" id="Fill-1" fill="#FF7F53" mask="url(#mask-2)"></path>
                    </g>
                    <path d="M18.1304875,3.07441315 L4.30899476,3.07441315 C3.58277789,3.07441315 2.99419106,3.66599306 2.99419106,4.39571487 L2.99419106,18.2861273 C2.99419106,19.0159073 3.58289359,19.607429 4.30899476,19.607429 L18.1304297,19.607429 C18.8565887,19.607429 19.4452334,19.0158491 19.4452334,18.2861273 L19.4452334,4.39571487 C19.4452912,3.66599306 18.8565887,3.07441315 18.1304875,3.07441315" id="Fill-4" fill="#FFFFFE"></path>
                    <g id="Group-8" transform="translate(2.950455, 0.000000)" fill="#FFAE53">
                        <path d="M1.3683747,19.607429 L1.35853985,19.607429 C0.632438687,19.607429 0.0437361551,19.0159073 0.0437361551,18.2861273 L0.0437361551,4.39571487 C0.0437361551,3.66599306 0.632322983,3.07441315 1.35853985,3.07441315 L15.1799748,3.07441315 C15.9060759,3.07441315 16.4947785,3.66593492 16.4947785,4.39571487 L16.4947785,4.40559876 L2.68312055,4.40559876 C1.95701938,4.40559876 1.3683747,4.99717866 1.3683747,5.72695861 L1.3683747,19.607429" id="Fill-5"></path>
                        <path d="M10.7568958,18.0396696 C10.2243676,18.0396696 9.70751731,17.8318172 9.32013993,17.4522758 L2.56406102,10.8339066 C1.74996687,10.0363929 1.73330548,8.72666118 2.52686214,7.90839135 C3.32036096,7.09012151 4.62359424,7.07355146 5.43780409,7.87100698 L10.3767499,12.7092876 C12.3544803,9.87604135 16.4796791,4.89647926 23.5011254,0.378959983 C24.4589241,-0.237097087 25.7318429,0.0437798201 26.3446697,1.00588933 C26.9577279,1.96817326 26.6783604,3.24767194 25.7209088,3.86367087 C16.2901558,9.93121671 12.6177072,16.8591843 12.5817232,16.9284878 C12.2805454,17.5080907 11.7244136,17.9105395 11.0819086,18.0136808 C10.9735517,18.031123 10.8649634,18.0396696 10.7568958,18.0396696" id="Fill-7"></path>
                    </g>
                </g>
            </g>
        </g>
    </g>
</svg>