<?xml version="1.0" encoding="UTF-8"?>
<svg width="68px" height="68px" viewBox="0 0 68 68" version="1.1" xmlns="http://www.w3.org/2000/svg" xmlns:xlink="http://www.w3.org/1999/xlink">
    <!-- Generator: Sketch 46 (44423) - http://www.bohemiancoding.com/sketch -->
    <title>Path 9 Copy 11</title>
    <desc>Created with Sketch.</desc>
    <defs>
        <circle id="path-1" cx="34" cy="34" r="34"></circle>
        <polygon id="path-3" points="18.5336667 0.577777778 0.0866666667 0.577777778 0.0866666667 37.5584444 36.9806667 37.5584444 36.9806667 0.577777778"></polygon>
    </defs>
    <g id="Page-1" stroke="none" stroke-width="1" fill="none" fill-rule="evenodd">
        <g id="bTaskee_Homepage" transform="translate(-478.000000, -2610.000000)">
            <g id="Group-22" transform="translate(0.000000, 2530.000000)">
                <g id="Group-33" transform="translate(149.000000, 80.000000)">
                    <g id="Path-9-Copy-11" transform="translate(329.000000, 0.000000)">
                        <mask id="mask-2" fill="white">
                            <use xlink:href="#path-1"></use>
                        </mask>
                        <use id="Mask" fill="#F7F7F7" xlink:href="#path-1"></use>
                        <g id="small-calendar" mask="url(#mask-2)">
                            <g transform="translate(15.000000, 15.000000)">
                                <g id="Group-3" stroke-width="1" fill="none">
                                    <mask id="mask-4" fill="white">
                                        <use xlink:href="#path-3"></use>
                                    </mask>
                                    <g id="Clip-2"></g>
                                    <path d="M33.8996667,4.04155556 L28.8888889,4.04155556 L28.8888889,1.73477778 C28.8888889,1.09633333 28.3703333,0.577777778 27.7318889,0.577777778 C27.0948889,0.577777778 26.5748889,1.09633333 26.5748889,1.73477778 L26.5748889,4.04155556 L19.6473333,4.04155556 L19.6473333,1.73477778 C19.6473333,1.09633333 19.1273333,0.577777778 18.4903333,0.577777778 C17.8518889,0.577777778 17.3333333,1.09633333 17.3333333,1.73477778 L17.3333333,4.04155556 L10.3985556,4.04155556 L10.3985556,1.73477778 C10.3985556,1.09633333 9.88,0.577777778 9.24155556,0.577777778 C8.60455556,0.577777778 8.09177778,1.09633333 8.09177778,1.73477778 L8.09177778,4.04155556 L3.081,4.04155556 C1.38233333,4.04155556 0,5.42388889 0,7.12255556 L0,34.4716667 C0,36.1761111 1.38233333,37.5584444 3.081,37.5584444 L33.8996667,37.5584444 C35.5983333,37.5584444 36.9806667,36.1761111 36.9806667,34.4716667 L36.9806667,7.12255556 C36.9806667,5.42388889 35.5983333,4.04155556 33.8996667,4.04155556 Z M34.6666667,34.4716667 C34.6666667,34.9006667 34.3228889,35.2444444 33.8996667,35.2444444 L3.081,35.2444444 C2.65777778,35.2444444 2.314,34.9006667 2.314,34.4716667 L2.314,7.12255556 C2.314,6.69933333 2.65777778,6.35555556 3.081,6.35555556 L8.09177778,6.35555556 L8.09177778,8.66955556 C8.09177778,9.30655556 8.60455556,9.81933333 9.24155556,9.81933333 C9.88,9.81933333 10.3985556,9.30655556 10.3985556,8.66955556 L10.3985556,6.35555556 L17.3333333,6.35555556 L17.3333333,8.66955556 C17.3333333,9.30655556 17.8518889,9.81933333 18.4903333,9.81933333 C19.1273333,9.81933333 19.6473333,9.30655556 19.6473333,8.66955556 L19.6473333,6.35555556 L26.5748889,6.35555556 L26.5748889,8.66955556 C26.5748889,9.30655556 27.0948889,9.81933333 27.7318889,9.81933333 C28.3703333,9.81933333 28.8888889,9.30655556 28.8888889,8.66955556 L28.8888889,6.35555556 L33.8996667,6.35555556 C34.3228889,6.35555556 34.6666667,6.69933333 34.6666667,7.12255556 L34.6666667,34.4716667 Z" id="Fill-1" fill="#FF7F53" mask="url(#mask-4)"></path>
                                </g>
                                <polygon id="Fill-4" fill="#FFAE53" points="8.09177778 17.9111111 12.7125556 17.9111111 12.7125556 14.4473333 8.09177778 14.4473333"></polygon>
                                <polygon id="Fill-5" fill="#FFAE53" points="8.09177778 23.6888889 12.7125556 23.6888889 12.7125556 20.2251111 8.09177778 20.2251111"></polygon>
                                <polygon id="Fill-6" fill="#FFAE53" points="8.09177778 29.4666667 12.7125556 29.4666667 12.7125556 26.0028889 8.09177778 26.0028889"></polygon>
                                <polygon id="Fill-7" fill="#FFAE53" points="16.1763333 29.4666667 20.7971111 29.4666667 20.7971111 26.0028889 16.1763333 26.0028889"></polygon>
                                <polygon id="Fill-8" fill="#FFAE53" points="16.1763333 23.6888889 20.7971111 23.6888889 20.7971111 20.2251111 16.1763333 20.2251111"></polygon>
                                <polygon id="Fill-9" fill="#FFAE53" points="16.1763333 17.9111111 20.7971111 17.9111111 20.7971111 14.4473333 16.1763333 14.4473333"></polygon>
                                <polygon id="Fill-10" fill="#FFAE53" points="24.2681111 29.4666667 28.8888889 29.4666667 28.8888889 26.0028889 24.2681111 26.0028889"></polygon>
                                <polygon id="Fill-11" fill="#FFAE53" points="24.2681111 23.6888889 28.8888889 23.6888889 28.8888889 20.2251111 24.2681111 20.2251111"></polygon>
                                <polygon id="Fill-12" fill="#FFAE53" points="24.2681111 17.9111111 28.8888889 17.9111111 28.8888889 14.4473333 24.2681111 14.4473333"></polygon>
                            </g>
                        </g>
                    </g>
                </g>
            </g>
        </g>
    </g>
</svg>