<?xml version="1.0" encoding="UTF-8"?>
<svg width="34px" height="34px" viewBox="0 0 34 34" version="1.1" xmlns="http://www.w3.org/2000/svg" xmlns:xlink="http://www.w3.org/1999/xlink">
    <!-- Generator: Sketch 46 (44423) - http://www.bohemiancoding.com/sketch -->
    <title>Group 38</title>
    <desc>Created with Sketch.</desc>
    <defs></defs>
    <g id="Page-1" stroke="none" stroke-width="1" fill="none" fill-rule="evenodd">
        <g id="bTaskee_Homepage" transform="translate(-248.000000, -6492.000000)" stroke="#FFFFFF">
            <g id="Group-23" transform="translate(-6.000000, 6436.000000)">
                <g id="Group-38" transform="translate(255.000000, 57.000000)">
                    <circle id="Oval-9-Copy-2" cx="16" cy="16" r="16"></circle>
                    <path d="M12.2539683,16.5216774 L13.9799365,16.5216774 L13.9799365,23.7419355 C13.9799365,23.8845806 14.0937778,24 14.2339048,24 L17.1604444,24 C17.3008254,24 17.4144127,23.8845806 17.4144127,23.7419355 L17.4144127,16.5556774 L19.3985397,16.5556774 C19.527746,16.5556774 19.6361905,16.4571613 19.6510476,16.3270968 L19.952381,13.6688387 C19.9605714,13.5957419 19.9377778,13.5224516 19.8896508,13.4674839 C19.8415238,13.4127742 19.7723175,13.3812903 19.700127,13.3812903 L17.4144127,13.3812903 L17.4144127,11.7149677 C17.4144127,11.2127097 17.6808254,10.9579355 18.2055873,10.9579355 L19.700127,10.9579355 C19.840254,10.9579355 19.9540952,10.8425161 19.9540952,10.699871 L19.9540952,8.26006452 C19.9540952,8.11741935 19.840254,8.002 19.700127,8.002 L17.6406349,8.002 C17.6259683,8.00129032 17.5937778,8 17.5463492,8 C17.1890159,8 15.9469206,8.07129032 14.9657778,8.9883871 C13.8787302,10.0047742 14.0297778,11.2218065 14.0659683,11.4327097 L14.0659683,13.3812903 L12.2539683,13.3812903 C12.1135873,13.3812903 12,13.4967097 12,13.6393548 L12,16.2636129 C12,16.406 12.1135873,16.5216774 12.2539683,16.5216774 Z" id="facebook"></path>
                </g>
            </g>
        </g>
    </g>
</svg>