<?xml version="1.0" encoding="UTF-8"?>
<svg width="68px" height="68px" viewBox="0 0 68 68" version="1.1" xmlns="http://www.w3.org/2000/svg" xmlns:xlink="http://www.w3.org/1999/xlink">
    <!-- Generator: Sketch 46 (44423) - http://www.bohemiancoding.com/sketch -->
    <title>Path 9 Copy 4</title>
    <desc>Created with Sketch.</desc>
    <defs>
        <circle id="path-1" cx="34" cy="34" r="34"></circle>
        <polygon id="path-3" points="0.469247297 0.0887162791 0.469247297 42.9146267 47.4682694 42.9146267 47.4682694 0.0887162791 0.469247297 0.0887162791"></polygon>
    </defs>
    <g id="Page-1" stroke="none" stroke-width="1" fill="none" fill-rule="evenodd">
        <g id="bTaskee_Homepage" transform="translate(-149.000000, -2610.000000)">
            <g id="Group-22" transform="translate(0.000000, 2530.000000)">
                <g id="Group-33" transform="translate(149.000000, 80.000000)">
                    <g id="Path-9-Copy-4">
                        <mask id="mask-2" fill="white">
                            <use xlink:href="#path-1"></use>
                        </mask>
                        <use id="Mask" fill="#F7F7F7" xlink:href="#path-1"></use>
                        <g id="Group-34" mask="url(#mask-2)">
                            <g transform="translate(9.000000, 15.000000)" id="like">
                                <g transform="translate(0.527711, 0.618605)">
                                    <g id="Group-3">
                                        <mask id="mask-4" fill="white">
                                            <use xlink:href="#path-3"></use>
                                        </mask>
                                        <g id="Clip-2"></g>
                                        <path d="M23.8336186,10.9439907 C25.2842429,7.55148019 28.5927788,5.17743256 32.4404769,5.17743256 C37.6230723,5.17743256 41.3550434,9.56445256 41.8251282,14.7907286 C41.8251282,14.7907286 42.0808041,16.0868734 41.5236998,18.422773 C40.7629518,21.6041388 38.9795002,24.4315266 36.5716612,26.5873322 L23.8336186,37.8259104 L11.3126761,26.5873322 C8.90483711,24.4315266 7.12138554,21.6041388 6.36063759,18.422773 C5.80353325,16.0868734 6.05562072,14.7907286 6.05562072,14.7907286 C6.52570554,9.56090391 10.2612651,5.17743256 15.4438605,5.17743256 C19.2915586,5.17743256 22.3865827,7.55148019 23.8336186,10.9439907 Z" id="Fill-1" stroke="#FF7F53" stroke-width="2" fill="#F7F7F7" mask="url(#mask-4)"></path>
                                    </g>
                                    <path d="M10.3070176,16.5890075 C9.91049566,16.5890075 9.58843373,16.2705161 9.58843373,15.8792773 C9.58843373,11.9660022 12.809053,8.78197498 16.7653012,8.78197498 C17.160926,8.78197498 17.4838851,9.10046642 17.4838851,9.49170521 C17.4838851,9.88383116 17.160926,10.2023226 16.7653012,10.2023226 C13.6011998,10.2023226 11.0256014,12.749367 11.0256014,15.8792773 C11.0256014,16.2705161 10.7026424,16.5890075 10.3070176,16.5890075 Z" id="Fill-4" fill="#FFAE53"></path>
                                </g>
                            </g>
                        </g>
                    </g>
                </g>
            </g>
        </g>
    </g>
</svg>