<?xml version="1.0" encoding="UTF-8"?>
<svg width="34px" height="34px" viewBox="0 0 34 34" version="1.1" xmlns="http://www.w3.org/2000/svg" xmlns:xlink="http://www.w3.org/1999/xlink">
    <!-- Generator: Sketch 46 (44423) - http://www.bohemiancoding.com/sketch -->
    <title>Group 26</title>
    <desc>Created with Sketch.</desc>
    <defs>
        <polygon id="path-1" points="0.00661764706 0.0827205882 0.00661764706 15 14.9172794 15 14.9172794 0.0827205882 0.00661764706 0.0827205882"></polygon>
    </defs>
    <g id="Page-1" stroke="none" stroke-width="1" fill="none" fill-rule="evenodd">
        <g id="bTaskee_Homepage" transform="translate(-383.000000, -6492.000000)">
            <g id="Group-23" transform="translate(-6.000000, 6436.000000)">
                <g id="Group-26" transform="translate(390.000000, 57.000000)">
                    <g id="Group-29">
                        <circle id="Oval-7" stroke="#FFFFFF" cx="16" cy="16" r="16"></circle>
                        <g id="instagram-logo-(2)" transform="translate(8.500000, 8.500000)">
                            <g id="Group-3">
                                <mask id="mask-2" fill="white">
                                    <use xlink:href="#path-1"></use>
                                </mask>
                                <g id="Clip-2"></g>
                                <path d="M10.8006618,0.0827205882 L4.11661765,0.0827205882 C1.84654412,0.0827205882 0,1.929375 0,4.19944853 L0,10.8833824 C0,13.1534559 1.84654412,15 4.11661765,15 L10.8006618,15 C13.0707353,15 14.9172794,13.1530147 14.9172794,10.8833824 L14.9172794,4.19944853 C14.9172794,1.929375 13.0707353,0.0827205882 10.8006618,0.0827205882 Z M13.59375,10.8833824 C13.59375,12.4236397 12.3409191,13.6764706 10.8006618,13.6764706 L4.11661765,13.6764706 C2.57636029,13.6764706 1.32352941,12.4236397 1.32352941,10.8833824 L1.32352941,4.19944853 C1.32352941,2.65919118 2.57636029,1.40625 4.11661765,1.40625 L10.8006618,1.40625 C12.3409191,1.40625 13.59375,2.65919118 13.59375,4.19944853 L13.59375,10.8833824 Z" id="Fill-1" fill="#FFFFFF" mask="url(#mask-2)"></path>
                            </g>
                            <path d="M7.45863971,3.69794118 C5.33889706,3.69794118 3.61466912,5.42216912 3.61466912,7.54136029 C3.61466912,9.66110294 5.33889706,11.3853309 7.45863971,11.3853309 C9.57794118,11.3853309 11.3026103,9.66110294 11.3026103,7.54136029 C11.3026103,5.42216912 9.57794118,3.69794118 7.45863971,3.69794118 Z M7.45863971,10.0613603 C6.06915441,10.0613603 4.93819853,8.93128676 4.93819853,7.54136029 C4.93819853,6.15198529 6.06871324,5.02102941 7.45863971,5.02102941 C8.84856618,5.02102941 9.97908088,6.15198529 9.97908088,7.54136029 C9.97908088,8.93128676 8.848125,10.0613603 7.45863971,10.0613603 Z" id="Fill-4" fill="#FFFFFF"></path>
                            <path d="M11.46375,2.57558824 C11.2086397,2.57558824 10.9582721,2.67860294 10.7782721,2.85948529 C10.5968382,3.03959559 10.4930515,3.29029412 10.4930515,3.54628676 C10.4930515,3.80128676 10.5972794,4.05165441 10.7782721,4.23253676 C10.9579412,4.41264706 11.2086397,4.51654412 11.46375,4.51654412 C11.7196324,4.51654412 11.9691176,4.41264706 12.15,4.23253676 C12.3309926,4.05165441 12.4343382,3.80084559 12.4343382,3.54628676 C12.4343382,3.29029412 12.3309926,3.03959559 12.15,2.85948529 C11.9698897,2.67860294 11.7196324,2.57558824 11.46375,2.57558824 Z" id="Fill-5" fill="#FFFFFF"></path>
                        </g>
                    </g>
                </g>
            </g>
        </g>
    </g>
</svg>