<?xml version="1.0" encoding="utf-8"?>
<!-- Generator: Adobe Illustrator 21.0.2, SVG Export Plug-In . SVG Version: 6.00 Build 0)  -->
<svg version="1.1" id="Layer_1" xmlns="http://www.w3.org/2000/svg" xmlns:xlink="http://www.w3.org/1999/xlink" x="0px" y="0px"
	 viewBox="0 0 43 43" style="enable-background:new 0 0 43 43;" xml:space="preserve">
<style type="text/css">
	.st0{filter:url(#filter-1);}
	.st1{filter:url(#Adobe_OpacityMaskFilter);}
	.st2{fill:#FFFFFF;}
	.st3{mask:url(#mask-3_1_);fill:none;stroke:#FFFFFF;stroke-width:2;}
	.st4{fill:none;stroke:#FFFFFF;stroke-width:2;}
</style>
<filter  filterUnits="objectBoundingBox" height="110.8%" id="filter-1" width="105.2%" x="-2.6%" y="-3.9%">
	<feOffset  dx="0" dy="7" in="SourceAlpha" result="shadowOffsetOuter1"></feOffset>
	<feGaussianBlur  in="shadowOffsetOuter1" result="shadowBlurOuter1" stdDeviation="7"></feGaussianBlur>
	
		<feColorMatrix  in="shadowBlurOuter1" result="shadowMatrixOuter1" type="matrix" values="0 0 0 0 0   0 0 0 0 0   0 0 0 0 0  0 0 0 0.167685688 0">
		</feColorMatrix>
	<feMerge>
		<feMergeNode  in="shadowMatrixOuter1"></feMergeNode>
		<feMergeNode  in="SourceGraphic"></feMergeNode>
	</feMerge>
</filter>
<title>Group 4</title>
<desc>Created with Sketch.</desc>
<g id="Page-1">
	<g id="bTaskee_Homepage" transform="translate(-968.000000, -5979.000000)">
		<g id="Group-7-Copy" transform="translate(251.000000, 5944.000000)" class="st0">
			<g id="Group-4_1_" transform="translate(732.000000, 43.000000)">
				<g id="call-answer_1_" transform="translate(8.038462, 8.038462)">
					<defs>
						<filter id="Adobe_OpacityMaskFilter" filterUnits="userSpaceOnUse" x="-12" y="-4.7" width="20.6" height="20.5">
							<feColorMatrix  type="matrix" values="1 0 0 0 0  0 1 0 0 0  0 0 1 0 0  0 0 0 1 0"/>
						</filter>
					</defs>
					<mask maskUnits="userSpaceOnUse" x="-12" y="-4.7" width="20.6" height="20.5" id="mask-3_1_">
						<g class="st1">
							<polygon id="path-2_1_" class="st2" points="-13.6,-6.3 -13.6,17.5 10.2,17.5 10.2,-6.3 							"/>
						</g>
					</mask>
					<path id="Fill-1_1_" class="st3" d="M7.2,11L4.3,8.1c-0.6-0.6-1.5-0.6-2.1,0L0.7,9.6c-0.1,0-0.2-0.1-0.3-0.2
						C-0.5,8.9-1.7,8.3-3,6.9c-1.3-1.3-2-2.6-2.5-3.5c-0.1-0.1-0.1-0.2-0.2-0.3l1-1l0.5-0.5c0.6-0.6,0.6-1.5,0-2.1l-2.9-2.9
						c-0.6-0.6-1.5-0.6-2.1,0L-10-2.4l0,0c-0.3,0.3-0.5,0.7-0.7,1.2c-0.2,0.4-0.3,0.8-0.3,1.2C-11.3,3.1-9.9,6-6,9.9
						c5.4,5.4,9.7,5,9.9,5c0.4,0,0.8-0.1,1.2-0.3c0.4-0.2,0.8-0.4,1.2-0.7l0,0l0.8-0.8C7.7,12.5,7.7,11.6,7.2,11z"/>
				</g>
				<circle id="Oval_1_" class="st4" cx="6.5" cy="13.5" r="20.5"/>
			</g>
		</g>
	</g>
</g>
</svg>
