<?xml version="1.0" encoding="UTF-8"?>
<svg width="68px" height="68px" viewBox="0 0 68 68" version="1.1" xmlns="http://www.w3.org/2000/svg" xmlns:xlink="http://www.w3.org/1999/xlink">
    <!-- Generator: Sketch 46 (44423) - http://www.bohemiancoding.com/sketch -->
    <title>Path 9 Copy 6</title>
    <desc>Created with Sketch.</desc>
    <defs>
        <circle id="path-1" cx="34" cy="34" r="34"></circle>
    </defs>
    <g id="Page-1" stroke="none" stroke-width="1" fill="none" fill-rule="evenodd">
        <g id="bTaskee_Homepage" transform="translate(-1006.000000, -2610.000000)">
            <g id="Group-22" transform="translate(0.000000, 2530.000000)">
                <g id="Group-33" transform="translate(149.000000, 80.000000)">
                    <g id="Path-9-Copy-6" transform="translate(857.000000, 0.000000)">
                        <mask id="mask-2" fill="white">
                            <use xlink:href="#path-1"></use>
                        </mask>
                        <use id="Mask" fill="#F7F7F7" xlink:href="#path-1"></use>
                        <g id="list" mask="url(#mask-2)">
                            <g transform="translate(18.252273, 11.816038)">
                                <polygon id="Fill-2" stroke="none" fill="#FFAE53" fill-rule="evenodd" points="22.0565055 0.535561078 22.0565055 10.5318086 32.0162171 10.5318086"></polygon>
                                <polygon id="Fill-1" stroke="#FF7F53" stroke-width="2" fill="none" points="32.0162171 10.5318086 22.0565055 0.535561078 0 0.535561078 0 41.9504992 32.0162171 41.9504992"></polygon>
                                <path d="M24.9015022,16.2471379 L13.517069,16.2471379 C13.1248703,16.2471379 12.8047081,15.9258012 12.8047081,15.5321639 C12.8047081,15.1376339 13.1248703,14.8171898 13.517069,14.8171898 L24.9015022,14.8171898 C25.2937008,14.8171898 25.613863,15.1376339 25.613863,15.5321639 C25.613863,15.9258012 25.2937008,16.2471379 24.9015022,16.2471379 Z" id="Fill-3" stroke="none" fill="#FFAE53" fill-rule="evenodd"></path>
                                <path d="M7.82707573,16.9576489 C7.64298248,16.9576489 7.46244659,16.888026 7.32282031,16.7487801 L5.89898799,15.3224024 C5.62062477,15.0439107 5.62062477,14.590469 5.89898799,14.3119772 C6.17646187,14.0325928 6.62824627,14.0325928 6.90660949,14.3119772 L7.87865741,15.287591 L10.9397635,12.8293656 C11.2456962,12.5856853 11.6930339,12.6347784 11.9367129,12.9409408 C12.1830599,13.2515663 12.1350356,13.7014376 11.8255455,13.9451179 L8.26818806,16.805014 C8.13923385,16.9094484 7.98359946,16.9576489 7.82707573,16.9576489 Z" id="Fill-4" stroke="none" fill="#FF7F53" fill-rule="evenodd"></path>
                                <path d="M24.9015022,24.0984633 L13.517069,24.0984633 C13.1248703,24.0984633 12.8047081,23.7815897 12.8047081,23.3879523 C12.8047081,22.9898519 13.1248703,22.6729782 13.517069,22.6729782 L24.9015022,22.6729782 C25.2937008,22.6729782 25.613863,22.9898519 25.613863,23.3879523 C25.613863,23.7815897 25.2937008,24.0984633 24.9015022,24.0984633 Z" id="Fill-5" stroke="none" fill="#FFAE53" fill-rule="evenodd"></path>
                                <path d="M7.82707573,24.8134373 C7.64298248,24.8134373 7.46244659,24.7438144 7.32282031,24.6045685 L5.89898799,23.1781908 C5.62062477,22.8996991 5.62062477,22.4462574 5.89898799,22.166873 C6.17646187,21.8883812 6.62824627,21.8883812 6.90660949,22.166873 L7.87865741,23.1433794 L10.9397635,20.685154 C11.2456962,20.4414737 11.6930339,20.4896742 11.9367129,20.7967293 C12.1830599,21.1073547 12.1350356,21.5536556 11.8255455,21.8009063 L8.26818806,24.6563394 C8.13923385,24.7616664 7.98359946,24.8134373 7.82707573,24.8134373 Z" id="Fill-6" stroke="none" fill="#FF7F53" fill-rule="evenodd"></path>
                                <path d="M24.9015022,31.9542517 L13.517069,31.9542517 C13.1248703,31.9542517 12.8047081,31.6373781 12.8047081,31.2392777 C12.8047081,30.8456403 13.1248703,30.5287666 13.517069,30.5287666 L24.9015022,30.5287666 C25.2937008,30.5287666 25.613863,30.8456403 25.613863,31.2392777 C25.613863,31.6373781 25.2937008,31.9542517 24.9015022,31.9542517 Z" id="Fill-7" stroke="none" fill="#FFAE53" fill-rule="evenodd"></path>
                                <path d="M7.82707573,32.6692257 C7.64298248,32.6692257 7.46244659,32.5996028 7.32282031,32.4603569 L5.89898799,31.0304088 C5.62062477,30.7519171 5.62062477,30.3020458 5.89898799,30.0226614 C6.17646187,29.7441697 6.62824627,29.7441697 6.90660949,30.0226614 L7.87865741,30.9991678 L10.9397635,28.5409424 C11.2456962,28.2936917 11.6930339,28.3454626 11.9367129,28.6525177 C12.1830599,28.9595727 12.1350356,29.409444 11.8255455,29.6566947 L8.26818806,32.5121278 C8.13923385,32.6165622 7.98359946,32.6692257 7.82707573,32.6692257 Z" id="Fill-8" stroke="none" fill="#FF7F53" fill-rule="evenodd"></path>
                            </g>
                        </g>
                    </g>
                </g>
            </g>
        </g>
    </g>
</svg>