<?xml version="1.0" encoding="UTF-8"?>
<svg width="34px" height="34px" viewBox="0 0 34 34" version="1.1" xmlns="http://www.w3.org/2000/svg" xmlns:xlink="http://www.w3.org/1999/xlink">
    <!-- Generator: Sketch 46 (44423) - http://www.bohemiancoding.com/sketch -->
    <title>Group 39</title>
    <desc>Created with Sketch.</desc>
    <defs>
        <polygon id="path-1" points="8.33469791 0.0651724138 0 0.0651724138 0 13.9990345 16.6693958 13.9990345 16.6693958 0.0651724138"></polygon>
    </defs>
    <g id="Page-1" stroke="none" stroke-width="1" fill="none" fill-rule="evenodd">
        <g id="bTaskee_Homepage" transform="translate(-292.000000, -6492.000000)">
            <g id="Group-23" transform="translate(-6.000000, 6436.000000)">
                <g id="Group-39" transform="translate(299.000000, 57.000000)">
                    <circle id="Oval-9-Copy" stroke="#FFFFFF" cx="16" cy="16" r="16"></circle>
                    <g id="twitter-social-outlined-logo" transform="translate(8.000000, 10.000000)">
                        <mask id="mask-2" fill="white">
                            <use xlink:href="#path-1"></use>
                        </mask>
                        <g id="Clip-2"></g>
                        <path d="M16.5055833,1.69062069 C16.371,1.59648276 16.1958056,1.60034483 16.065,1.70027586 C15.9762222,1.76834483 15.8435278,1.82868966 15.68675,1.88131034 C16.1995833,1.23055172 16.2066667,0.797034483 16.1995833,0.68937931 C16.1901389,0.551793103 16.1070278,0.427241379 15.9837778,0.368827586 C15.8600556,0.308482759 15.7141389,0.321517241 15.6036389,0.404551724 C14.9042778,0.915793103 14.2053889,1.02682759 13.7978611,1.04227586 C13.1334444,0.410344828 12.274,0.0651724138 11.3611944,0.0651724138 C9.38730556,0.0651724138 7.78080556,1.708 7.78080556,3.72544828 C7.78080556,3.87268966 7.78788889,4.018 7.80630556,4.16282759 C4.51019444,4.07834483 1.83741667,0.902758621 1.81144444,0.870413793 C1.73211111,0.774344828 1.61216667,0.723172414 1.48844444,0.734758621 C1.36708333,0.745862069 1.258,0.817793103 1.19708333,0.924965517 C0.357944444,2.39062069 0.698888889,3.78048276 1.27452778,4.75131034 C1.16780556,4.69289655 1.03841667,4.68903448 0.927916667,4.746 C0.802305556,4.80972414 0.721083333,4.94006897 0.717777778,5.08537931 C0.693694444,6.62393103 1.38172222,7.54793103 2.07541667,8.08524138 C2.02347222,8.106 1.97766667,8.14027586 1.94036111,8.1817931 C1.85016667,8.28365517 1.819,8.42703448 1.85772222,8.55689655 C2.34080556,10.1485517 3.47319444,10.7442759 4.26841667,10.9668276 C3.35702778,11.6253103 2.22841667,11.7778621 1.37227778,11.7778621 C0.8245,11.7778621 0.44625,11.7117241 0.442944444,11.7117241 C0.272944444,11.6798621 0.101527778,11.774 0.0311666667,11.9381379 C-0.0387222222,12.1022759 0.0108611111,12.2924828 0.151111111,12.4001379 C1.87047222,13.721931 3.94730556,13.9990345 5.38805556,13.9990345 C6.52422222,13.9990345 7.31566667,13.8295862 7.35627778,13.8218621 C14.7460833,12.0568966 15.0261111,5.28331034 15.01525,4.04793103 C16.4002778,2.74689655 16.62175,2.23951724 16.6552778,2.11303448 C16.6991944,1.95275862 16.6382778,1.78524138 16.5055833,1.69062069 Z M14.3786944,3.59751724 C14.2941667,3.67668966 14.2478889,3.79158621 14.2568611,3.91034483 C14.2606389,3.9817931 14.6648611,11.2835172 7.19194444,13.0677931 C7.18486111,13.0697241 6.43969444,13.228069 5.38616667,13.228069 C4.40677778,13.228069 3.10816667,13.0904828 1.87047222,12.5357931 C3.00286111,12.4604828 4.39402778,12.1061379 5.39561111,10.9745517 C5.49525,10.8611034 5.51933333,10.6974483 5.45841667,10.557931 C5.3975,10.4184138 5.26102778,10.3295862 5.11133333,10.3295862 C5.04144444,10.3295862 3.55441667,10.3107586 2.81113889,8.8982069 C3.15444444,8.9097931 3.468,8.85668966 3.69844444,8.74903448 C3.84766667,8.67951724 3.93455556,8.52117241 3.91802778,8.35510345 C3.9015,8.18903448 3.77966667,8.05337931 3.621,8.01958621 C3.53977778,8.00075862 1.82797222,7.60248276 1.52008333,5.75641379 C1.78736111,5.86213793 2.11413889,5.93358621 2.431,5.88675862 C2.57691667,5.86406897 2.69686111,5.75641379 2.73936111,5.61110345 C2.77997222,5.46627586 2.73180556,5.30937931 2.61941667,5.21137931 C2.54386111,5.14572414 0.913277778,3.69551724 1.62161111,1.79634483 C2.57125,2.78455172 5.1595,5.10613793 8.28041667,4.92703448 C8.39280556,4.92124138 8.49622222,4.86282759 8.56280556,4.7682069 C8.62891667,4.676 8.65111111,4.55724138 8.62372222,4.44572414 C8.56658333,4.21206897 8.53683333,3.96875862 8.53683333,3.72544828 C8.53683333,2.1337931 9.80427778,0.838551724 11.3626111,0.838551724 C12.1247778,0.838551724 12.8401944,1.14413793 13.3771111,1.70027586 C13.4455833,1.77172414 13.5395556,1.81517241 13.6391944,1.81517241 L13.6982222,1.81710345 C13.9749444,1.81710345 14.4103333,1.78137931 14.9099444,1.61724138 C14.7493889,1.79055172 14.5411389,1.98510345 14.2719722,2.198 C14.1406944,2.3017931 14.0911111,2.48282759 14.1520278,2.64117241 C14.2110556,2.80144828 14.3678333,2.90137931 14.5335833,2.88834483 C14.5945,2.88255172 14.8641389,2.85986207 15.1961111,2.79758621 C14.9855,3.01627586 14.7201111,3.28034483 14.3786944,3.59751724 Z" id="Fill-1" fill="#FFFFFF" mask="url(#mask-2)"></path>
                    </g>
                </g>
            </g>
        </g>
    </g>
</svg>