<?xml version="1.0" encoding="UTF-8"?>
<svg width="34px" height="34px" viewBox="0 0 34 34" version="1.1" xmlns="http://www.w3.org/2000/svg" xmlns:xlink="http://www.w3.org/1999/xlink">
    <!-- Generator: Sketch 46 (44423) - http://www.bohemiancoding.com/sketch -->
    <title>Group 40</title>
    <desc>Created with Sketch.</desc>
    <defs>
        <polygon id="path-1" points="0.00447761194 0.0344421387 0.00447761194 14.0624268 19.9775281 14.0624268 19.9775281 0.0344421387"></polygon>
    </defs>
    <g id="Page-1" stroke="none" stroke-width="1" fill="none" fill-rule="evenodd">
        <g id="bTaskee_Homepage" transform="translate(-337.000000, -6492.000000)">
            <g id="Group-23" transform="translate(-6.000000, 6436.000000)">
                <g id="Group-40" transform="translate(344.000000, 57.000000)">
                    <circle id="Oval-9" stroke="#FFFFFF" cx="16" cy="16" r="16"></circle>
                    <g id="youtube-(1)" transform="translate(6.000000, 9.000000)">
                        <mask id="mask-2" fill="white">
                            <use xlink:href="#path-1"></use>
                        </mask>
                        <g id="Clip-2"></g>
                        <path d="M10.4673134,14.0624268 C10.4670149,14.0624268 10.4673134,14.0624268 10.4673134,14.0624268 C8.19552239,14.0624268 5.72238806,13.992041 3.11656716,13.854126 C1.57738806,13.7714355 0.383358209,12.6067383 0.213059701,11.0214111 C-0.071119403,8.37297363 -0.071119403,5.69934082 0.213059701,3.07463379 C0.382761194,1.50219727 1.57529851,0.3375 3.1130597,0.242797852 C7.60701493,-0.0350097656 12.2309701,-0.0350097656 16.8630597,0.242797852 C18.4191045,0.335229492 19.5846269,1.47246094 19.7647761,3.07294922 C20.0481343,5.60690918 20.0486567,8.28024902 19.7650746,11.0203125 C19.601194,12.6043945 18.4366418,13.7430908 16.8673881,13.85354 C14.8924627,13.992041 12.7393284,14.0624268 10.4673134,14.0624268 Z M9.93589552,0.787280273 C7.67141791,0.787280273 5.39179104,0.857373047 3.1608209,0.994702148 C1.98544776,1.06706543 1.10776119,1.93513184 0.975970149,3.15388184 C0.69761194,5.72592773 0.69761194,8.34609375 0.975970149,10.9424561 C1.10776119,12.1712402 1.98432836,13.0390137 3.15761194,13.1022217 C5.74947761,13.2392578 8.20895522,13.3093506 10.4667164,13.3093506 C12.7203731,13.3093506 14.8553731,13.2395508 16.8120149,13.1025146 C17.9961194,13.0190186 18.8759701,12.1518311 19.0006716,10.9442139 C19.279403,8.25681152 19.279403,5.63671875 19.0009701,3.15534668 C18.8642537,1.93278809 17.9859701,1.06450195 16.8164179,0.994702148 C14.5161194,0.856787109 12.2008955,0.787280273 9.93589552,0.787280273 Z M8.03432836,4.38068848 L8.03432836,9.54916992 L13.0914925,6.98254395 L8.03432836,4.38068848 Z" id="Fill-1" fill="#FFFFFF" mask="url(#mask-2)"></path>
                    </g>
                </g>
            </g>
        </g>
    </g>
</svg>