<?xml version="1.0" encoding="UTF-8"?>
<svg width="99px" height="99px" viewBox="0 0 99 99" version="1.1" xmlns="http://www.w3.org/2000/svg" xmlns:xlink="http://www.w3.org/1999/xlink">
    <!-- Generator: Sketch 46 (44423) - http://www.bohemiancoding.com/sketch -->
    <title>Group 14</title>
    <desc>Created with Sketch.</desc>
    <defs>
        <circle id="path-1" cx="49" cy="49" r="49"></circle>
    </defs>
    <g id="Page-1" stroke="none" stroke-width="1" fill="none" fill-rule="evenodd">
        <g id="bTaskee_Homepage" transform="translate(-671.000000, -1721.000000)">
            <g id="Group-14" transform="translate(671.000000, 1721.000000)">
                <g id="Group-16">
                    <g id="Path-9" transform="translate(0.580471, 0.580471)">
                        <mask id="mask-2" fill="white">
                            <use xlink:href="#path-1"></use>
                        </mask>
                        <use id="Mask" fill="#F8F8F8" xlink:href="#path-1"></use>
                    </g>
                </g>
                <g id="recommended" transform="translate(23.000000, 22.000000)">
                    <path d="M7.46704688,43.5951127 C5.58562466,43.5951127 4.06049462,42.0729556 4.06049462,40.1950094 L4.06049462,16.3954353 L2.35712256,16.3954353 C1.41660332,16.3954353 0.653942371,17.1566096 0.653942371,18.0952955 L0.653942371,45.2949729 C0.653942371,46.2338502 1.41660332,46.9950245 2.35712256,46.9950245 L12.5769712,46.9950245 C13.5176823,46.9950245 14.2803432,46.2338502 14.2803432,45.2949729 L14.2803432,43.5951127 L7.46704688,43.5951127" id="Fill-13" fill="#FFAE53"></path>
                    <path d="M12.5769712,46.9950245 L2.35712256,46.9950245 C1.41660332,46.9950245 0.653942371,46.2338502 0.653942371,45.2949729 L0.653942371,18.0952955 C0.653942371,17.1566096 1.41660332,16.3954353 2.35712256,16.3954353 L12.5769712,16.3954353 C13.5176823,16.3954353 14.2803432,17.1566096 14.2803432,18.0952955 L14.2803432,45.2949729 C14.2803432,46.2340417 13.5176823,46.9950245 12.5769712,46.9950245" id="Fill-7" stroke="#FF7F53" stroke-width="2"></path>
                    <path d="M50.0359992,20.20686 C49.8140121,17.9949545 47.7842787,16.3954353 45.556925,16.3954353 L31.057733,16.3954353 C35.0228025,13.1916097 37.7150436,8.89379946 38.1047202,5.35907843 C38.393668,2.73814952 36.5780552,0.248583014 33.9360826,0.224072245 C31.5673248,0.202242341 29.6388958,2.09301841 29.6388958,4.45217996 C29.6388958,5.98276262 26.3104324,10.5249146 20.0725373,12.5459041 C20.0633278,12.5489679 20.0545021,12.5518403 20.0452926,12.5549041 C18.5861639,13.036694 17.6868955,14.509638 17.6868955,16.043476 L17.6868955,43.5947297 C17.6868955,44.5336071 18.4495564,45.2947814 19.3902676,45.2947814 L41.3595077,45.2947814 C43.0565482,45.2947814 44.6292607,44.1374135 44.9017081,42.4655109 C45.2487908,40.3355634 43.6106526,38.4949578 41.5417789,38.4949578 L43.0630716,38.4949578 C44.7599203,38.4949578 46.3328246,37.3373984 46.605272,35.6656873 C46.9523547,33.5355483 45.3142165,31.6949427 43.2453428,31.6949427 L44.7666356,31.6949427 C46.4634842,31.6949427 48.0361966,30.5375748 48.3088359,28.8658637 C48.6559186,26.7357247 47.0175886,24.8951191 44.9487149,24.8951191 L45.8004009,24.8951191 C48.2963648,24.8953106 50.2911788,22.7510012 50.0359992,20.20686" id="Fill-8" stroke="#FF7F53" stroke-width="2"></path>
                    <path d="M7.46647128,37.6447405 C8.87744201,37.6447405 10.0213375,38.7864061 10.0213375,40.1946264 C10.0213375,41.6030382 8.87744201,42.7447039 7.46647128,42.7447039 C6.05550055,42.7447039 4.91160506,41.6030382 4.91160506,40.1946264 C4.91160506,38.7864061 6.05550055,37.6447405 7.46647128,37.6447405" id="Fill-14" fill="#FFAE53"></path>
                </g>
                <path d="M34.5003761,28.0189628 C36.9824134,28.0189628 39.0016074,25.9958277 39.0016074,23.5089459 C39.0016074,21.0222783 36.9824134,19 34.5003761,19 C32.0194078,19 30,21.0222783 30,23.5089459 C30,25.9958277 32.0194078,28.0189628 34.5003761,28.0189628 Z M34.5003761,21.5695637 C35.567588,21.5695637 36.4361942,22.439651 36.4361942,23.5089459 C36.4361942,24.578455 35.567588,25.4485423 34.5003761,25.4485423 C33.4331642,25.4485423 32.5654132,24.578455 32.5654132,23.5089459 C32.5654132,22.439651 33.4331642,21.5695637 34.5003761,21.5695637 Z" id="Fill-5" fill="#5EC871"></path>
                <g id="Group-12" transform="translate(49.000000, 59.000000)">
                    <path d="M33.3854903,6.78419641 C35.2518284,6.78419641 36.7707668,5.26207909 36.7707668,3.39209821 C36.7707668,1.52126051 35.2518284,0 33.3854903,0 C31.5180833,0 30,1.52126051 30,3.39209821 C30,5.26207909 31.5180833,6.78419641 33.3854903,6.78419641 Z M33.3854903,2.57042046 C33.8372168,2.57042046 34.2053536,2.9386332 34.2053536,3.39209821 C34.2053536,3.84470641 33.8372168,4.21377595 33.3854903,4.21377595 C32.9326949,4.21377595 32.5654132,3.84470641 32.5654132,3.39209821 C32.5654132,2.9386332 32.9326949,2.57042046 33.3854903,2.57042046 Z" id="Fill-4" fill="#FFAE53"></path>
                    <path d="M4.50037612,23.0189628 C6.9824134,23.0189628 9.00160738,20.9958277 9.00160738,18.5089459 C9.00160738,16.0222783 6.9824134,14 4.50037612,14 C2.01940777,14 0,16.0222783 0,18.5089459 C0,20.9958277 2.01940777,23.0189628 4.50037612,23.0189628 Z M4.50037612,16.5695637 C5.56758802,16.5695637 6.43619417,17.439651 6.43619417,18.5089459 C6.43619417,19.578455 5.56758802,20.4485423 4.50037612,20.4485423 C3.43316423,20.4485423 2.56541321,19.578455 2.56541321,18.5089459 C2.56541321,17.439651 3.43316423,16.5695637 4.50037612,16.5695637 Z" id="Fill-5" fill="#FF7F53"></path>
                    <path d="M32.0959561,11.7739615 C32.3048235,12.2676965 32.8059342,12.5930689 33.343602,12.5654369 C33.8789183,12.5386616 34.3507405,12.1680927 34.5078721,11.6550796 C34.8484307,10.5365183 33.5723514,9.5691834 32.5895843,10.1993648 C32.075219,10.5290212 31.8588691,11.2076122 32.0959561,11.7739615 C32.1286651,11.8510742 32.064316,11.6962063 32.0959561,11.7739615 Z" id="Fill-6" fill="#FFAE53"></path>
                    <g id="Group-5" transform="translate(20.000000, 17.000000)" fill="#5EC871">
                        <rect id="Rectangle-4" x="2.48961691" y="0" width="1.65974461" height="6.62703054" rx="0.829872303"></rect>
                        <rect id="Rectangle-4" transform="translate(3.319489, 3.313515) rotate(-90.000000) translate(-3.319489, -3.313515) " x="2.48961691" y="2.79776202e-14" width="1.65974461" height="6.62703054" rx="0.829872303"></rect>
                    </g>
                </g>
                <g id="Group-5" transform="translate(21.000000, 25.000000)" fill="#FFAE53">
                    <rect id="Rectangle-4" x="2.48961691" y="0" width="1.65974461" height="6.62703054" rx="0.829872303"></rect>
                    <rect id="Rectangle-4" transform="translate(3.319489, 3.313515) rotate(-90.000000) translate(-3.319489, -3.313515) " x="2.48961691" y="2.66453526e-14" width="1.65974461" height="6.62703054" rx="0.829872303"></rect>
                </g>
            </g>
        </g>
    </g>
</svg>