<?xml version="1.0" encoding="UTF-8"?>
<svg width="99px" height="99px" viewBox="0 0 99 99" version="1.1" xmlns="http://www.w3.org/2000/svg" xmlns:xlink="http://www.w3.org/1999/xlink">
    <!-- Generator: Sketch 46 (44423) - http://www.bohemiancoding.com/sketch -->
    <title>Group 15</title>
    <desc>Created with Sketch.</desc>
    <defs>
        <circle id="path-1" cx="49" cy="49" r="49"></circle>
    </defs>
    <g id="Page-1" stroke="none" stroke-width="1" fill="none" fill-rule="evenodd">
        <g id="bTaskee_Homepage" transform="translate(-1061.000000, -1721.000000)">
            <g id="Group-15" transform="translate(1061.000000, 1721.000000)">
                <g id="Path-9-Copy-2" transform="translate(0.580471, 0.580471)">
                    <mask id="mask-2" fill="white">
                        <use xlink:href="#path-1"></use>
                    </mask>
                    <use id="Mask" fill="#F8F8F8" xlink:href="#path-1"></use>
                    <path d="M29.4249202,21.497882 C29.6962608,22.1401717 30.347256,22.563442 31.0457428,22.5274961 C31.7411745,22.4926648 32.354121,22.0105991 32.5582513,21.3432309 C33.0006725,19.8881172 31.3429121,18.6297309 30.0661949,19.4495211 C29.3979805,19.8783644 29.1169195,20.7611297 29.4249202,21.497882 C29.4674126,21.5981962 29.3838164,21.3967318 29.4249202,21.497882 Z" id="Fill-6" fill="#FF7F53" mask="url(#mask-2)"></path>
                    <g id="Group-5-Copy-2" mask="url(#mask-2)" fill="#FFAE53">
                        <g transform="translate(20.951639, 23.364483)" id="Rectangle-4">
                            <rect x="1.39848851" y="0" width="1" height="3.72767773" rx="0.5"></rect>
                            <rect transform="translate(1.864651, 1.830002) rotate(-90.000000) translate(-1.864651, -1.830002) " x="1.36465135" y="-0.0338371629" width="1" height="3.72767773" rx="0.5"></rect>
                        </g>
                    </g>
                    <g id="Group-5-Copy" mask="url(#mask-2)" fill="#5EC871">
                        <g transform="translate(15.942465, 31.713107)" id="Rectangle-4">
                            <rect x="2.51727932" y="0" width="1.67818621" height="6.70981991" rx="0.839093107"></rect>
                            <rect transform="translate(3.356372, 3.354910) rotate(-90.000000) translate(-3.356372, -3.354910) " x="2.51727932" y="-1.11022302e-14" width="1.67818621" height="6.70981991" rx="0.839093107"></rect>
                        </g>
                    </g>
                    <g id="Group-18" mask="url(#mask-2)">
                        <g transform="translate(27.115140, 13.120229)" id="open-padlock">
                            <g transform="translate(0.192843, 0.669597)">
                                <g id="Group-3" transform="translate(23.375224, 21.908686) rotate(20.000000) translate(-23.375224, -21.908686) translate(4.875224, 5.408686)" stroke="#FF7F53" stroke-width="2" fill="#F7F7F7">
                                    <path d="M36.2488206,16.3756687 L34.7734636,12.2973031 C31.5846019,2.84969244 21.7269324,-2.05605574 12.5577089,0.818031271 C2.76806237,3.88673274 -2.38632569,14.5127367 1.08041987,24.0962793 L4.0357137,32.3017998 L9.09689012,32.3017998 L5.54999872,22.4598102 C3.07921682,15.630008 6.57923301,8.07826209 13.367384,5.59259086 C20.1554003,3.10678411 27.6610923,6.62814039 30.1317395,13.457807 L31.7792418,18.0125444 C32.0039195,18.6335218 32.6863041,18.9534972 33.3033598,18.7275764 L35.5380145,17.9092741 C36.1553396,17.6830822 36.4733637,16.9965106 36.2488206,16.3756687" id="Fill-1"></path>
                                </g>
                                <path d="M21.9620019,66.1363917 L21.9620019,66.1363917 C10.1413653,66.1363917 0.558750987,56.4951153 0.558750987,44.6018134 L0.558750987,30.245473 C0.558750987,28.9239649 1.62341108,27.8527722 2.93686004,27.8527722 L40.987009,27.8527722 C42.300458,27.8527722 43.3651181,28.9239649 43.3651181,30.245473 L43.3651181,44.6018134 C43.3651181,56.4951153 33.7826384,66.1363917 21.9620019,66.1363917" id="Fill-4" stroke="#FF7F53" stroke-width="2" fill="#F7F7F7"></path>
                                <path d="M27.9073419,63.7436909 C16.0865706,63.7436909 6.50409098,54.1022789 6.50409098,42.2091126 L6.50409098,27.8527722 L2.93686004,27.8527722 C1.62354578,27.8527722 0.558750987,28.9239649 0.558750987,30.245473 L0.558750987,44.6018134 C0.558750987,56.4951153 10.1413653,66.1363917 21.9620019,66.1363917 C25.91299,66.1363917 29.6014499,65.0402623 32.7780541,63.1618804 C31.2109671,63.5294253 29.5855555,63.7436909 27.9073419,63.7436909" id="Fill-5" fill="#FFA04D"></path>
                                <path d="M21.9620019,66.1363917 L21.9620019,66.1363917 C10.1413653,66.1363917 0.558750987,56.4951153 0.558750987,44.6018134 L0.558750987,30.245473 C0.558750987,28.9239649 1.62341108,27.8527722 2.93686004,27.8527722 L40.987009,27.8527722 C42.300458,27.8527722 43.3651181,28.9239649 43.3651181,30.245473 L43.3651181,44.6018134 C43.3651181,56.4951153 33.7826384,66.1363917 21.9620019,66.1363917" id="Fill-4" stroke="#FF7F53" stroke-width="2"></path>
                                <path d="M25.5290981,43.4055307 C25.5290981,41.4233363 23.932108,39.8164117 21.9620019,39.8164117 C19.9917611,39.8164117 18.394771,41.4233363 18.394771,43.4055307 C18.394771,44.8522643 19.2499743,46.0908309 20.4755995,46.6590888 L20.4755995,50.5836332 C20.4755995,51.4096604 21.1410121,52.0791559 21.9620019,52.0791559 C22.782857,52.0791559 23.4482695,51.4096604 23.4482695,50.5836332 L23.4482695,46.6590888 C24.6737601,46.0908309 25.5290981,44.8522643 25.5290981,43.4055307" id="Fill-6" stroke="#FF7F53" stroke-width="2"></path>
                            </g>
                        </g>
                    </g>
                </g>
                <path d="M83.0091752,68.8967708 C85.058393,68.8967708 86.7254785,67.2241492 86.7254785,65.1681262 C86.7254785,63.1122803 85.058393,61.440367 83.0091752,61.440367 C80.9608399,61.440367 79.293578,63.1122803 79.293578,65.1681262 C79.293578,67.2241492 80.9608399,68.8967708 83.0091752,68.8967708 Z M83.0091752,63.564747 C83.8902859,63.564747 84.6074239,64.2840894 84.6074239,65.1681262 C84.6074239,66.05234 83.8902859,66.7716825 83.0091752,66.7716825 C82.1280645,66.7716825 81.4116326,66.05234 81.4116326,65.1681262 C81.4116326,64.2840894 82.1280645,63.564747 83.0091752,63.564747 Z" id="Fill-5" fill="#FF7F53"></path>
                <g id="Group-5" transform="translate(76.788991, 75.633028)" fill="#FFAE53">
                    <rect id="Rectangle-4" x="1.39848851" y="0" width="1" height="3.72767773" rx="0.5"></rect>
                    <rect id="Rectangle-4" transform="translate(1.864651, 1.830002) rotate(-90.000000) translate(-1.864651, -1.830002) " x="1.36465135" y="-0.0338371629" width="1" height="3.72767773" rx="0.5"></rect>
                </g>
                <g id="Group-5" transform="translate(66.770642, 79.807339)" fill="#5EC871">
                    <rect id="Rectangle-4" x="2.51727932" y="0" width="1.67818621" height="6.70981991" rx="0.839093107"></rect>
                    <rect id="Rectangle-4" transform="translate(3.356372, 3.354910) rotate(-90.000000) translate(-3.356372, -3.354910) " x="2.51727932" y="-1.0658141e-14" width="1.67818621" height="6.70981991" rx="0.839093107"></rect>
                </g>
            </g>
        </g>
    </g>
</svg>