<?xml version="1.0" encoding="UTF-8"?>
<svg width="98px" height="99px" viewBox="0 0 98 99" version="1.1" xmlns="http://www.w3.org/2000/svg" xmlns:xlink="http://www.w3.org/1999/xlink">
    <!-- Generator: Sketch 46 (44423) - http://www.bohemiancoding.com/sketch -->
    <title>Group 4 Copy 2</title>
    <desc>Created with Sketch.</desc>
    <defs>
        <polygon id="path-1" points="48.5374308 63.1656713 0 63.1656713 0 31.5828357 0 0 48.5374308 0 48.5374308 63.1656713"></polygon>
    </defs>
    <g id="Page-1" stroke="none" stroke-width="1" fill="none" fill-rule="evenodd">
        <g id="bTaskee_Homepage" transform="translate(-281.000000, -1721.000000)">
            <g id="Group-4-Copy-2" transform="translate(281.000000, 1721.000000)">
                <g id="Group-9" transform="translate(0.000000, 0.134953)">
                    <circle id="Oval-2" fill="#F8F8F8" cx="49" cy="49" r="49"></circle>
                    <g id="hourglass-(2)" transform="translate(25.471283, 17.872291)">
                        <g id="Group-3">
                            <path d="M39.7286491,13.1759848 L9.61808306,13.1759848 C11.8197676,24.9198534 16.8381953,30.7917876 24.6733661,30.7917876 C32.5085368,30.7917876 37.5269645,24.9198534 39.7286491,13.1759848 Z" id="Path-2" fill="#FFAE53"></path>
                            <path d="M39.4548615,44.7944883 L9.89187062,44.7944883 C7.76156494,52.9205504 12.6887301,56.9835814 24.6733661,56.9835814 C36.658002,56.9835814 41.5851672,52.9205504 39.4548615,44.7944883 Z" id="Path-2-Copy" fill="#FFAE53" transform="translate(24.673366, 50.889035) scale(1, -1) translate(-24.673366, -50.889035) "></path>
                            <path d="M45.3680754,56.9189369 L40.0924111,56.9189369 L40.0924111,50.5931466 C40.0924111,42.5953238 35.7188854,35.3748841 28.7893003,31.6223636 C35.7188854,27.8698431 40.0924111,20.6494034 40.0924111,12.6515806 L40.0924111,6.32579032 L45.3680754,6.32579032 C47.1156392,6.32579032 48.5374308,4.90541916 48.5374308,3.15960117 C48.5374308,1.42037117 47.1156392,0 45.3680754,0 L3.16276077,0 C1.42179154,0 0,1.42037117 0,3.15960117 C0,4.90541916 1.42179154,6.32579032 3.16276077,6.32579032 L8.4384251,6.32579032 L8.4384251,12.6515806 C8.4384251,20.6494034 12.8185454,27.8698431 19.7481305,31.6223636 C12.8185454,35.3748841 8.4384251,42.5953238 8.4384251,50.5931466 L8.4384251,56.9189369 L3.16276077,56.9189369 C1.42179154,56.9189369 0,58.3393081 0,60.0851261 C0,61.8243561 1.42179154,63.2447273 3.16276077,63.2447273 L45.3680754,63.2447273 C47.1156392,63.2447273 48.5374308,61.8243561 48.5374308,60.0851261 C48.5374308,58.3393081 47.1156392,56.9189369 45.3680754,56.9189369 Z M3.16276077,4.21499755 C2.58639444,4.21499755 2.11290357,3.7419797 2.11290357,3.15960117 C2.11290357,2.57854023 2.58639444,2.11079277 3.16276077,2.11079277 L45.3680754,2.11079277 C45.9510363,2.11079277 46.4245272,2.57854023 46.4245272,3.15960117 C46.4245272,3.7419797 45.9510363,4.21499755 45.3680754,4.21499755 L3.16276077,4.21499755 Z M10.5513287,12.6515806 L10.5513287,6.32579032 L37.9861021,6.32579032 L37.9861021,12.6515806 C37.9861021,20.4794332 33.3540688,27.4890572 26.1620194,30.5669672 L22.3701357,30.5669672 C15.1833619,27.4890572 10.5513287,20.4794332 10.5513287,12.6515806 Z M10.5513287,50.5931466 C10.5513287,42.765294 15.1833619,35.7556701 22.3701357,32.67776 L26.1672951,32.67776 C33.3540688,35.7556701 37.9861021,42.765294 37.9861021,50.5931466 L37.9861021,56.9189369 C37.9861021,56.337876 37.5112923,55.8635405 36.9296503,55.8635405 C36.3480083,55.8635405 35.8731985,56.337876 35.8731985,56.9189369 L33.7668896,56.9189369 C33.7668896,56.337876 33.2920798,55.8635405 32.7104378,55.8635405 C32.1274769,55.8635405 31.653986,56.337876 31.653986,56.9189369 L29.5410824,56.9189369 C29.5410824,56.337876 29.0728672,55.8635405 28.4912252,55.8635405 C27.9082643,55.8635405 27.4347734,56.337876 27.4347734,56.9189369 L25.3218699,56.9189369 C25.3218699,56.337876 24.848379,55.8635405 24.2654181,55.8635405 C23.6837761,55.8635405 23.2155609,56.337876 23.2155609,56.9189369 L21.1026573,56.9189369 C21.1026573,56.337876 20.6291665,55.8635405 20.0462055,55.8635405 C19.4645636,55.8635405 18.9897538,56.337876 18.9897538,56.9189369 L16.8834448,56.9189369 C16.8834448,56.337876 16.408635,55.8635405 15.826993,55.8635405 C15.245351,55.8635405 14.7705412,56.337876 14.7705412,56.9189369 L12.6642322,56.9189369 C12.6642322,56.337876 12.1894224,55.8635405 11.6077804,55.8635405 C11.0248195,55.8635405 10.5513287,56.337876 10.5513287,56.9189369 L10.5513287,50.5931466 Z M45.3680754,61.1339345 L3.16276077,61.1339345 C2.58639444,61.1339345 2.11290357,60.666187 2.11290357,60.0851261 C2.11290357,59.5027476 2.58639444,59.0297297 3.16276077,59.0297297 L45.3680754,59.0297297 C45.9510363,59.0297297 46.4245272,59.5027476 46.4245272,60.0851261 C46.4245272,60.666187 45.9510363,61.1339345 45.3680754,61.1339345 Z" id="Fill-1" fill="#FF7F53"></path>
                            <mask id="mask-2" fill="white">
                                <use xlink:href="#path-1"></use>
                            </mask>
                            <g id="Clip-2"></g>
                        </g>
                    </g>
                </g>
                <g id="Group-2" transform="translate(17.400000, 27.472527)">
                    <g id="Group-7">
                        <path d="M7.15041374,18.7021569 C9.88065474,18.7021569 12.1017681,16.4789315 12.1017681,13.7460944 C12.1017681,11.0134926 9.88065474,8.79120879 7.15041374,8.79120879 C4.42134854,8.79120879 2.2,11.0134926 2.2,13.7460944 C2.2,16.4789315 4.42134854,18.7021569 7.15041374,18.7021569 Z M7.15041374,11.6149051 C8.32434682,11.6149051 9.27981359,12.571045 9.27981359,13.7460944 C9.27981359,14.9213791 8.32434682,15.8775191 7.15041374,15.8775191 C5.97648065,15.8775191 5.02195453,14.9213791 5.02195453,13.7460944 C5.02195453,12.571045 5.97648065,11.6149051 7.15041374,11.6149051 Z" id="Fill-5" fill="#5EC871"></path>
                        <path d="M54.0055517,16.9384193 C54.2353058,17.4809851 54.7865276,17.8385372 55.3779622,17.8081724 C55.9668101,17.7787491 56.4858146,17.3715304 56.6586593,16.8077798 C57.0332737,15.5785915 55.6295865,14.5155861 54.5485428,15.2080932 C53.9827409,15.570353 53.7447561,16.3160574 54.0055517,16.9384193 C54.0415316,17.0231584 53.9707476,16.852974 54.0055517,16.9384193 Z" id="Fill-6" fill="#FF7F53"></path>
                        <g id="Group-6">
                            <g id="Group-5" transform="translate(56.715596, 0.289184)" fill="#5EC871">
                                <rect id="Rectangle-4" x="3" y="0" width="1.82571907" height="7.28245114" rx="0.912859534"></rect>
                                <rect id="Rectangle-4" transform="translate(3.912860, 3.641226) rotate(-90.000000) translate(-3.912860, -3.641226) " x="3" y="2.79776202e-14" width="1.82571907" height="7.28245114" rx="0.912859534"></rect>
                            </g>
                            <g id="Group-5" transform="translate(0.000000, 23.905919)" fill="#FFAE53">
                                <rect id="Rectangle-4" x="3" y="0" width="1.82571907" height="7.28245114" rx="0.912859534"></rect>
                                <rect id="Rectangle-4-Copy" x="59" y="3" width="1.82571907" height="7.28245114" rx="0.912859534"></rect>
                                <rect id="Rectangle-4" transform="translate(3.912860, 3.641226) rotate(-90.000000) translate(-3.912860, -3.641226) " x="3" y="2.66453526e-14" width="1.82571907" height="7.28245114" rx="0.912859534"></rect>
                                <rect id="Rectangle-4-Copy-2" transform="translate(59.912860, 6.641226) rotate(-90.000000) translate(-59.912860, -6.641226) " x="59" y="3" width="1.82571907" height="7.28245114" rx="0.912859534"></rect>
                            </g>
                        </g>
                    </g>
                </g>
            </g>
        </g>
    </g>
</svg>