<?xml version="1.0" encoding="UTF-8"?>
<svg width="43px" height="31px" viewBox="0 0 43 31" version="1.1" xmlns="http://www.w3.org/2000/svg" xmlns:xlink="http://www.w3.org/1999/xlink">
    <!-- Generator: Sketch 45.2 (43514) - http://www.bohemiancoding.com/sketch -->
    <title>air-conditioner (1)</title>
    <desc>Created with Sketch.</desc>
    <defs>
        <polygon id="path-1" points="0.00708791209 0.0559922481 0.00708791209 18.3195581 43 18.3195581 43 0.0559922481 0.00708791209 0.0559922481"></polygon>
    </defs>
    <g id="Page-1" stroke="none" stroke-width="1" fill="none" fill-rule="evenodd" opacity="0.78">
        <g id="bTaskee_Service_AirConditioningCleaning" transform="translate(-977.000000, -1806.000000)">
            <g id="air-conditioner-(1)" transform="translate(977.000000, 1806.000000)">
                <g id="Group-3">
                    <mask id="mask-2" fill="white">
                        <use xlink:href="#path-1"></use>
                    </mask>
                    <g id="Clip-2"></g>
                    <path d="M40.1810192,0.0559922481 L2.81898077,0.0559922481 C1.26483791,0.0559922481 0,1.34249225 0,2.92337209 L0,17.5986279 C0,17.9967016 0.317538462,18.3195581 0.708791209,18.3195581 L42.2912088,18.3195581 C42.6824615,18.3195581 43,17.9967016 43,17.5986279 L43,2.92337209 C43,1.34249225 41.7351621,0.0559922481 40.1810192,0.0559922481 Z M3.07142857,1.49785271 L39.9285714,1.49785271 L39.9285714,2.41223256 C39.9285714,2.88864729 39.5473599,3.27626744 39.0790852,3.27626744 L3.92091484,3.27626744 C3.45264011,3.27626744 3.07142857,2.88864729 3.07142857,2.41223256 L3.07142857,1.49785271 Z M39.9285714,13.2730465 L3.07142857,13.2730465 L3.07142857,13.1759612 C3.07142857,12.6995465 3.45264011,12.3118062 3.92091484,12.3118062 L39.0790852,12.3118062 C39.5473599,12.3118062 39.9285714,12.6995465 39.9285714,13.1759612 L39.9285714,13.2730465 Z M3.07142857,15.1955271 L39.9285714,15.1955271 L39.9285714,14.2342868 L3.07142857,14.2342868 L3.07142857,15.1955271 Z M3.07142857,16.8776977 L39.9285714,16.8776977 L39.9285714,16.1567674 L3.07142857,16.1567674 L3.07142857,16.8776977 Z M41.5824176,16.8776977 L40.8736264,16.8776977 L40.8736264,13.1759612 C40.8736264,12.1696628 40.0684396,11.3505659 39.0790852,11.3505659 L3.92091484,11.3505659 C2.93108791,11.3505659 2.12637363,12.1696628 2.12637363,13.1759612 L2.12637363,16.8776977 L1.41758242,16.8776977 L1.41758242,2.92337209 C1.41758242,2.39384884 1.7036978,1.9316124 2.12637363,1.68565504 L2.12637363,2.41223256 C2.12637363,3.41853101 2.93156044,4.23750775 3.92091484,4.23750775 L39.0790852,4.23750775 C40.0689121,4.23750775 40.8736264,3.41853101 40.8736264,2.41223256 L40.8736264,1.68565504 C41.2963022,1.9316124 41.5824176,2.39384884 41.5824176,2.92337209 L41.5824176,16.8776977 Z" id="Fill-1" fill="#000000" mask="url(#mask-2)"></path>
                </g>
                <path d="M23.6733901,9.42808527 L19.3266099,9.42808527 C19.0654203,9.42808527 18.8540824,9.64352326 18.8540824,9.90870543 C18.8540824,10.1738876 19.0654203,10.3893256 19.3266099,10.3893256 L23.6733901,10.3893256 C23.9345797,10.3893256 24.1459176,10.1738876 24.1459176,9.90870543 C24.1459176,9.64352326 23.9345797,9.42808527 23.6733901,9.42808527 Z" id="Fill-4" fill="#000000"></path>
                <path d="M37.9443104,9.42808527 C37.8193269,9.42808527 37.6974148,9.47927132 37.609761,9.56842636 C37.5216346,9.65806202 37.471783,9.78206202 37.471783,9.90870543 C37.471783,10.0359496 37.5216346,10.1598295 37.609761,10.2481434 C37.6974148,10.3387403 37.8193269,10.3893256 37.9443104,10.3893256 C38.0679945,10.3893256 38.1897885,10.3387403 38.2779148,10.2481434 C38.3656868,10.1588682 38.4168379,10.0345078 38.4168379,9.90870543 C38.4168379,9.78302326 38.3656868,9.65902326 38.2779148,9.56842636 C38.1897885,9.47927132 38.0679945,9.42808527 37.9443104,9.42808527 Z" id="Fill-5" fill="#000000"></path>
                <path d="M35.7704478,9.42808527 C35.6458187,9.42808527 35.5240247,9.47927132 35.4358984,9.56842636 C35.3482445,9.65806202 35.2979203,9.78206202 35.2979203,9.90870543 C35.2979203,10.0359496 35.3482445,10.1588682 35.4358984,10.2481434 C35.5240247,10.3377791 35.6458187,10.3893256 35.7704478,10.3893256 C35.8946044,10.3893256 36.0163984,10.3377791 36.1040522,10.2481434 C36.1921786,10.1588682 36.2429753,10.0345078 36.2429753,9.90870543 C36.2429753,9.78206202 36.1921786,9.65806202 36.1040522,9.56842636 C36.0163984,9.47927132 35.8946044,9.42808527 35.7704478,9.42808527 Z" id="Fill-6" fill="#000000"></path>
                <path d="M17.6081456,21.4699031 C17.7359643,21.2384845 17.6546896,20.9456667 17.4271676,20.8156589 C17.1997637,20.6856512 16.9112857,20.7681977 16.7839396,20.9996163 C15.9247665,22.557907 15.9247665,24.4939651 16.783467,26.0522558 C17.4825714,27.3204922 17.4825714,28.8960853 16.783467,30.1638411 C16.6561209,30.3956202 16.7373956,30.6885581 16.9647995,30.8185659 C17.0378049,30.8598992 17.1170714,30.8800853 17.195511,30.8800853 C17.3607775,30.8800853 17.5213187,30.7912907 17.6081456,30.6341279 C18.4668462,29.0763178 18.4668462,27.1402597 17.6081456,25.581969 C16.9090412,24.3137326 16.9090412,22.7381395 17.6081456,21.4699031 Z" id="Fill-7" fill="#000000"></path>
                <path d="M21.912044,21.4699031 C22.0398626,21.2384845 21.958706,20.9456667 21.7311841,20.8156589 C21.5036621,20.6856512 21.2157747,20.7681977 21.087956,20.9996163 C20.2286648,22.557907 20.2286648,24.4939651 21.087956,26.0522558 C21.7865879,27.3204922 21.7865879,28.8960853 21.087956,30.1638411 C20.9601374,30.3956202 21.041294,30.6885581 21.2688159,30.8185659 C21.3417033,30.8598992 21.4210879,30.8800853 21.4995275,30.8800853 C21.664794,30.8800853 21.8253352,30.7912907 21.912044,30.6341279 C22.7708626,29.0763178 22.7708626,27.1402597 21.912044,25.581969 C21.2129396,24.3137326 21.2129396,22.7381395 21.912044,21.4699031 Z" id="Fill-8" fill="#000000"></path>
                <path d="M26.216533,21.4699031 C26.3438791,21.2384845 26.2630769,20.9456667 26.0352005,20.8156589 C25.8076786,20.6856512 25.5196731,20.7681977 25.3918544,20.9996163 C24.5326813,22.557907 24.5326813,24.4939651 25.3918544,26.0522558 C26.0909588,27.3204922 26.0909588,28.8960853 25.3918544,30.1638411 C25.2640357,30.3956202 25.3453104,30.6885581 25.5728324,30.8185659 C25.6461923,30.8598992 25.7251044,30.8800853 25.803544,30.8800853 C25.9686923,30.8800853 26.1293516,30.7912907 26.2160604,30.6341279 C27.0752335,29.0763178 27.0752335,27.1402597 26.2160604,25.581969 C25.516956,24.3137326 25.516956,22.7381395 26.216533,21.4699031 Z" id="Fill-9" fill="#000000"></path>
            </g>
        </g>
    </g>
</svg>