<?xml version="1.0" encoding="UTF-8"?>
<svg width="27px" height="40px" viewBox="0 0 27 40" version="1.1" xmlns="http://www.w3.org/2000/svg" xmlns:xlink="http://www.w3.org/1999/xlink">
    <!-- Generator: Sketch 45.2 (43514) - http://www.bohemiancoding.com/sketch -->
    <title>gas</title>
    <desc>Created with Sketch.</desc>
    <defs>
        <polygon id="path-1" points="13.121434 40 0.00634734058 40 0.00634734058 0.00425531915 26.2365207 0.00425531915 26.2365207 40"></polygon>
    </defs>
    <g id="Page-1" stroke="none" stroke-width="1" fill="none" fill-rule="evenodd" opacity="0.78">
        <g id="bTaskee_Service_AirConditioningCleaning" transform="translate(-1160.000000, -1797.000000)">
            <g id="gas" transform="translate(1160.000000, 1797.000000)">
                <g id="Group-3">
                    <mask id="mask-2" fill="white">
                        <use xlink:href="#path-1"></use>
                    </mask>
                    <g id="Clip-2"></g>
                    <path d="M18.7961681,7.57691489 L18.7961681,0.638297872 C18.7961681,0.285957447 18.5122304,0 18.161434,0 L8.07508669,0 C7.72471349,0 7.44035263,0.285957447 7.44035263,0.638297872 L7.44035263,7.57691489 C3.28316192,7.90351064 0,11.4091489 0,15.6723404 L0,31.5920213 C0,34.6064894 2.27615633,37.0960638 5.19106671,37.4152128 L5.19106671,39.3617021 C5.19106671,39.7140426 5.47542756,40 5.82580076,40 L20.4110373,40 C20.7615163,40 21.0457714,39.7140426 21.0457714,39.3617021 L21.0457714,37.4152128 C23.9603644,37.0960638 26.2365207,34.6064894 26.2365207,31.5920213 L26.2365207,15.6723404 C26.2365207,11.4095745 22.9533588,7.90351064 18.7961681,7.57691489 Z M17.5267,1.27659574 L17.5267,7.55191489 L13.7529944,7.55191489 L13.7529944,6.09957447 C14.4294093,5.84106383 14.9125478,5.18404255 14.9125478,4.41404255 C14.9125478,3.41925532 14.1074934,2.61010638 13.1182604,2.61010638 C12.1289215,2.61010638 11.3243961,3.41925532 11.3243961,4.41404255 C11.3243961,5.18404255 11.8070056,5.84106383 12.4835263,6.09957447 L12.4835263,7.55191489 L8.70982075,7.55191489 L8.70982075,1.27659574 L17.5267,1.27659574 Z M13.1182604,4.94180851 C12.8290332,4.94180851 12.5938642,4.705 12.5938642,4.41404255 C12.5938642,4.12319149 12.8290332,3.88670213 13.1182604,3.88670213 C13.4074875,3.88670213 13.6430796,4.12319149 13.6430796,4.41404255 C13.6430796,4.705 13.4074875,4.94180851 13.1182604,4.94180851 Z M8.07508669,8.82851064 L18.161434,8.82851064 C21.6999706,8.82851064 24.6154099,11.5582979 24.9364796,15.0340426 L5.71260652,15.0340426 C5.36223332,15.0340426 5.07787247,15.3195745 5.07787247,15.6723404 C5.07787247,16.0247872 5.36223332,16.3106383 5.71260652,16.3106383 L24.9670526,16.3106383 L24.9670526,30.9537234 L1.26946812,30.9537234 L1.26946812,16.3106383 L3.17367029,16.3106383 C3.52404349,16.3106383 3.80840435,16.0247872 3.80840435,15.6723404 C3.80840435,15.3195745 3.52404349,15.0340426 3.17367029,15.0340426 L1.30004114,15.0340426 C1.62153394,11.5587234 4.5365501,8.82851064 8.07508669,8.82851064 Z M6.46053482,38.7234043 L19.7763033,38.7234043 L19.7763033,37.4505319 L6.46053482,37.4505319 L6.46053482,38.7234043 Z M20.4110373,36.1739362 L5.82580076,36.1739362 C3.52901557,36.1739362 1.62439024,34.4556383 1.31453423,32.2303191 L24.9219865,32.2303191 C24.6120247,34.4556383 22.7078225,36.1739362 20.4110373,36.1739362 Z" id="Fill-1" fill="#000000" mask="url(#mask-2)"></path>
                </g>
            </g>
        </g>
    </g>
</svg>