<?xml version="1.0" encoding="UTF-8"?>
<svg width="98px" height="99px" viewBox="0 0 98 99" version="1.1" xmlns="http://www.w3.org/2000/svg" xmlns:xlink="http://www.w3.org/1999/xlink">
    <!-- Generator: Sketch 44.1 (41455) - http://www.bohemiancoding.com/sketch -->
    <title>money</title>
    <desc>Created with Sketch.</desc>
    <defs></defs>
    <g id="Page-1" stroke="none" stroke-width="1" fill="none" fill-rule="evenodd">
        <g id="money">
            <g id="Group-4-Copy-2">
                <g id="Group-9" transform="translate(0.000000, 0.134953)" fill="#F8F8F8">
                    <circle id="Oval-2" cx="49" cy="49" r="49"></circle>
                </g>
                <g id="Group-2" transform="translate(11.400000, 26.472527)">
                    <g id="Group-7" transform="translate(0.000000, 0.000000)">
                        <path d="M15.1504137,10.7021569 C17.8806547,10.7021569 20.1017681,8.47893154 20.1017681,5.74609439 C20.1017681,3.01349264 17.8806547,0.791208791 15.1504137,0.791208791 C12.4213485,0.791208791 10.2,3.01349264 10.2,5.74609439 C10.2,8.47893154 12.4213485,10.7021569 15.1504137,10.7021569 Z M15.1504137,3.61490512 C16.3243468,3.61490512 17.2798136,4.57104504 17.2798136,5.74609439 C17.2798136,6.92137914 16.3243468,7.87751906 15.1504137,7.87751906 C13.9764807,7.87751906 13.0219545,6.92137914 13.0219545,5.74609439 C13.0219545,4.57104504 13.9764807,3.61490512 15.1504137,3.61490512 Z" id="Fill-5" fill="#5EC871"></path>
                        <path d="M69.0055517,30.9384193 C69.2353058,31.4809851 69.7865276,31.8385372 70.3779622,31.8081724 C70.9668101,31.7787491 71.4858146,31.3715304 71.6586593,30.8077798 C72.0332737,29.5785915 70.6295865,28.5155861 69.5485428,29.2080932 C68.9827409,29.570353 68.7447561,30.3160574 69.0055517,30.9384193 C69.0415316,31.0231584 68.9707476,30.852974 69.0055517,30.9384193 Z" id="Fill-6" fill="#FF7F53"></path>
                        <g id="Group-6" transform="translate(0.000000, 5.000000)">
                            <g id="Group-5" transform="translate(65.715596, 0.289184)" fill="#5EC871">
                                <rect id="Rectangle-4" x="3" y="0" width="1.82571907" height="7.28245114" rx="0.912859534"></rect>
                                <rect id="Rectangle-4" transform="translate(3.912860, 3.641226) rotate(-90.000000) translate(-3.912860, -3.641226) " x="3" y="2.79776202e-14" width="1.82571907" height="7.28245114" rx="0.912859534"></rect>
                            </g>
                            <g id="Group-5" transform="translate(0.000000, 8.905919)" fill="#FFAE53">
                                <rect id="Rectangle-4" x="3" y="-1.0658141e-14" width="1.82571907" height="7.28245114" rx="0.912859534"></rect>
                                <rect id="Rectangle-4-Copy" x="63" y="21" width="1.82571907" height="7.28245114" rx="0.912859534"></rect>
                                <rect id="Rectangle-4" transform="translate(3.912860, 3.641226) rotate(-90.000000) translate(-3.912860, -3.641226) " x="3" y="1.59872116e-14" width="1.82571907" height="7.28245114" rx="0.912859534"></rect>
                                <rect id="Rectangle-4-Copy-2" transform="translate(63.912860, 24.641226) rotate(-90.000000) translate(-63.912860, -24.641226) " x="63" y="21" width="1.82571907" height="7.28245114" rx="0.912859534"></rect>
                            </g>
                        </g>
                    </g>
                </g>
                <g id="funds" transform="translate(22.000000, 28.000000)">
                    <polygon id="Path-3" fill="#FFAE53" points="17.2294922 11.6806641 35.7573242 22.5834961 35.8408203 36.8803711 33.3413086 38.2407227 33.0776367 24.4492188 14.3613281 13.0810547"></polygon>
                    <path d="M40.4710395,20.144 C40.4699915,20.1346415 40.4693927,20.1245283 40.4681949,20.114566 C40.4611582,20.0656604 40.4518757,20.0172075 40.439,19.9689057 C40.4384011,19.9683019 40.4384011,19.9676981 40.4384011,19.9670943 C40.4261243,19.9222642 40.4102542,19.8780377 40.3927373,19.8344151 C40.388096,19.821434 40.3822571,19.8096604 40.3770169,19.797283 C40.3629435,19.765434 40.3476723,19.7347925 40.3307542,19.7041509 C40.3237175,19.690566 40.3166808,19.6769811 40.3084463,19.664 C40.304404,19.6569057 40.3009605,19.6493585 40.2967684,19.6422642 C40.2786525,19.6138868 40.259339,19.5874717 40.2395763,19.5609057 C40.2359831,19.5562264 40.2331384,19.5507925 40.2295452,19.5461132 C40.1991525,19.506566 40.1669633,19.4706415 40.1331271,19.4359245 C40.1266893,19.429434 40.1196525,19.4235472 40.1132147,19.4170566 C40.0838701,19.3886792 40.0534774,19.3615094 40.0212881,19.3361509 C40.0132034,19.3302642 40.0055678,19.3237736 39.9967345,19.317283 C39.954065,19.2855849 39.9101977,19.256 39.8646836,19.2300377 L22.2189774,9.11803774 L32.3788079,2.66762264 L49.4114209,12.4288302 L42.2378559,16.9824906 C41.6782119,17.3379623 41.5103785,18.0839245 41.8623644,18.6481509 C42.2150989,19.2123774 42.9542542,19.3815849 43.514048,19.0261132 L52.3806186,13.3975849 C52.7367966,13.1717736 52.9496949,12.7731321 52.9398136,12.3486792 C52.9303814,11.9240755 52.700565,11.5361509 52.3345056,11.3261887 L32.9390508,0.211169811 C32.5553249,-0.00935849057 32.0828164,0.00196226415 31.7091215,0.238943396 L19.2574153,8.14339623 C19.2550198,8.14520755 19.252774,8.14701887 19.2497797,8.14807547 L13.0284181,12.098566 C13.0254237,12.1003774 13.0224294,12.1021887 13.0195847,12.1038491 L0.559644068,20.0143396 C0.203466102,20.2401509 -0.00883333333,20.6386415 0.000598870056,21.0632453 C0.00988135593,21.4876981 0.239847458,21.8757736 0.60650565,22.0855849 L20.0019605,33.2006038 C20.1855141,33.3061132 20.3897288,33.3586415 20.5937938,33.3586415 C20.8153757,33.3586415 21.0371073,33.2961509 21.2317401,33.1728302 L30.0978616,27.5436981 C30.6576554,27.1888302 30.8260876,26.4430189 30.4733531,25.8786415 C30.1213672,25.3144151 29.3814633,25.1446038 28.8218192,25.5000755 L20.5622034,30.7436981 L3.52944068,20.9830943 L13.6892712,14.5325283 L31.8553955,24.9429434 L31.8553955,38.7313208 C31.8553955,39.1711698 32.0922486,39.5761509 32.4740282,39.7885283 C32.6547373,39.8887547 32.854161,39.9388679 33.0531356,39.9388679 C33.2753164,39.9388679 33.4968983,39.8763774 33.6910819,39.7530566 L39.9214266,35.7978868 C40.2693701,35.5767547 40.4810706,35.1912453 40.4810706,34.7761509 L40.4810706,20.2855849 C40.4810706,20.2784906 40.479274,20.272 40.479274,20.2643019 C40.4786751,20.2241509 40.4758305,20.1841509 40.4710395,20.144 Z M34.2508757,36.5436981 L34.2508757,24.2407547 C34.2508757,23.8061887 34.0192627,23.4057358 33.6449689,23.1912453 L15.9887825,13.0726038 L19.9188672,10.5779623 L36.9516299,20.338566 L35.4602938,21.2855849 C34.9005,21.6404528 34.7326667,22.3864151 35.0848023,22.9506415 C35.3122232,23.3156226 35.7017881,23.5148679 36.0994379,23.5148679 C36.3175763,23.5148679 36.538709,23.4547925 36.7363362,23.3292075 L38.0849915,22.4730566 L38.0849915,34.1097358 L34.2508757,36.5436981 Z" id="Fill-1" fill="#FF7F53"></path>
                    <path d="M51.1045763,16.1841509 L42.2378559,21.8126792 C41.6782119,22.1681509 41.5103785,22.9135094 41.8623644,23.4777358 C42.0905339,23.842717 42.4793503,24.0419623 42.8777486,24.0419623 C43.0952881,24.0419623 43.3162712,23.9824906 43.5146469,23.8563019 L52.3806186,18.2277736 C52.9404124,17.8721509 53.1088446,17.1269434 52.7561102,16.562566 C52.4041243,15.9977358 51.6642203,15.8285283 51.1045763,16.1841509 Z" id="Fill-3" fill="#FF7F53"></path>
                    <path d="M28.8218192,30.3302642 L20.5616045,35.5738868 L1.78957345,24.8161509 C1.21525706,24.4870943 0.483587571,24.6893585 0.156754237,25.2695849 C-0.170228814,25.8492075 0.0309915254,26.5862642 0.60590678,26.9157736 L20.0013616,38.0307925 C20.1855141,38.1363019 20.3897288,38.1888302 20.5931949,38.1888302 C20.8153757,38.1888302 21.0371073,38.1263396 21.231291,38.0030189 L30.0978616,32.3738868 C30.6576554,32.0190189 30.8260876,31.2732075 30.4733531,30.7088302 C30.1213672,30.1446038 29.3814633,29.9747925 28.8218192,30.3302642 Z" id="Fill-4" fill="#FF7F53"></path>
                    <path d="M51.1045763,21.0143396 L42.2378559,26.6428679 C41.6782119,26.9983396 41.5103785,27.7436981 41.8623644,28.3079245 C42.0905339,28.6729057 42.4793503,28.8721509 42.8777486,28.8721509 C43.0952881,28.8721509 43.3162712,28.8126792 43.5146469,28.6864906 L52.3806186,23.0579623 C52.9404124,22.7023396 53.1088446,21.9571321 52.7561102,21.3927547 C52.4041243,20.8279245 51.6642203,20.658717 51.1045763,21.0143396 Z" id="Fill-5" fill="#FF7F53"></path>
                    <path d="M28.8218192,35.1604528 L20.5616045,40.4040755 L1.78957345,29.6463396 C1.21525706,29.317283 0.483587571,29.5195472 0.156754237,30.0997736 C-0.170228814,30.6793962 0.0309915254,31.4164528 0.60590678,31.7459623 L20.0013616,42.8609811 C20.1855141,42.9664906 20.3897288,43.0190189 20.5931949,43.0190189 C20.8153757,43.0190189 21.0371073,42.9565283 21.231291,42.8332075 L30.0978616,37.2040755 C30.6576554,36.8492075 30.8260876,36.1033962 30.4733531,35.5390189 C30.1213672,34.9741887 29.3814633,34.8049811 28.8218192,35.1604528 Z" id="Fill-6" fill="#FF7F53"></path>
                    <path d="M51.1045763,25.8445283 L42.2378559,31.4730566 C41.6782119,31.8285283 41.5103785,32.5738868 41.8623644,33.1381132 C42.0905339,33.5030943 42.4793503,33.7023396 42.8777486,33.7023396 C43.0952881,33.7023396 43.3162712,33.6428679 43.5146469,33.5166792 L52.3806186,27.8881509 C52.9404124,27.5325283 53.1088446,26.7873208 52.7561102,26.2229434 C52.4041243,25.6581132 51.6642203,25.4889057 51.1045763,25.8445283 Z" id="Fill-7" fill="#FF7F53"></path>
                    <path d="M28.8218192,39.9906415 L20.5616045,45.2342642 L1.78957345,34.4765283 C1.21525706,34.1474717 0.483587571,34.3497358 0.156754237,34.9299623 C-0.170228814,35.5095849 0.0309915254,36.2466415 0.60590678,36.5761509 L20.0013616,47.6911698 C20.1855141,47.7966792 20.3897288,47.8492075 20.5931949,47.8492075 C20.8153757,47.8492075 21.0371073,47.786717 21.231291,47.6633962 L30.0978616,42.0342642 C30.6576554,41.6793962 30.8260876,40.9335849 30.4733531,40.3692075 C30.1213672,39.8049811 29.3814633,39.6351698 28.8218192,39.9906415 Z" id="Fill-8" fill="#FF7F53"></path>
                </g>
            </g>
        </g>
    </g>
</svg>