<?xml version="1.0" encoding="UTF-8"?>
<svg width="29px" height="40px" viewBox="0 0 29 40" version="1.1" xmlns="http://www.w3.org/2000/svg" xmlns:xlink="http://www.w3.org/1999/xlink">
    <!-- Generator: Sketch 45.2 (43514) - http://www.bohemiancoding.com/sketch -->
    <title>remote-control</title>
    <desc>Created with Sketch.</desc>
    <defs></defs>
    <g id="Page-1" stroke="none" stroke-width="1" fill="none" fill-rule="evenodd" opacity="0.78">
        <g id="bTaskee_Service_AirConditioningCleaning" transform="translate(-263.000000, -1797.000000)" fill="#000000">
            <g id="remote-control" transform="translate(263.000000, 1797.000000)">
                <path d="M18.4044444,39.9077136 C18.1463579,39.9077136 17.8918751,39.7875289 17.7297972,39.5624018 L16.8555556,38.3448499 C16.1469957,37.347806 15.7741424,36.1807852 15.7741424,34.9650808 L15.7741424,32.669746 L12.1858801,27.4871132 C11.7916813,27.1125173 11.5224138,26.4622633 11.5224138,25.7701617 C11.5224138,25.07806 11.7916813,24.4281755 12.281519,23.9384758 C13.2593464,22.9594457 14.9667095,22.9594457 15.9459229,23.9384758 L20.5123822,28.5032794 C20.8365382,28.8277136 20.8365382,29.3527021 20.5123822,29.6771363 C20.1879491,30.0012009 19.6627203,30.0012009 19.3381947,29.6771363 L14.772105,25.111963 C14.4090467,24.7489145 13.8184877,24.7489145 13.4553369,25.111963 C13.0922786,25.4753811 13.0922786,26.0653118 13.4553369,26.4283603 L17.2872707,31.938291 C17.3829096,32.0761201 17.4345639,32.2413857 17.4345639,32.410254 L17.4345639,34.9647113 C17.4345639,35.8337182 17.7023529,36.6687298 18.2066058,37.3784758 L19.0790917,38.5927945 C19.3465112,38.9655427 19.2606671,39.4844342 18.8891999,39.7518707 C18.7415371,39.8571824 18.5729908,39.9077136 18.4044444,39.9077136 Z M27.3972774,39.8799076 C27.1395605,39.8799076 26.8833221,39.7600924 26.7212441,39.5331178 L22.569867,33.723418 C22.4695154,33.5822633 22.4161055,33.4137644 22.4161055,33.2401848 L22.4161055,25.6730716 C22.4161055,23.8186605 20.9484404,22.6448037 18.7271219,20.869746 C18.5762249,20.7481755 18.4220938,20.625127 18.2647284,20.5002309 L18.2647284,23.2770439 C18.2647284,23.7359815 17.8937232,24.1069746 17.4345639,24.1069746 C16.9757742,24.1069746 16.604307,23.7359815 16.604307,23.2770439 L16.604307,14.9802309 C16.604307,14.065127 15.8600789,13.3202771 14.9439779,13.3202771 L3.32084291,13.3202771 C2.40538878,13.3202771 1.66042146,14.065127 1.66042146,14.9802309 L1.66042146,33.2401848 C1.66042146,34.1560277 2.40538878,34.9001386 3.32084291,34.9001386 L12.4533919,34.9001386 C12.9120892,34.9001386 13.2835565,35.2715012 13.2835565,35.7300693 C13.2835565,36.1887298 12.9120892,36.5600924 12.4533919,36.5600924 L3.32084291,36.5600924 C1.48928781,36.5600924 0,35.070485 0,33.2401848 L0,14.9806005 C0,13.1492841 1.48928781,11.6604157 3.32084291,11.6604157 L14.9439779,11.6604157 C16.7747014,11.6604157 18.2647284,13.1492841 18.2647284,14.9806005 L18.2647284,18.3556582 C18.7852445,18.7908545 19.2880189,19.1928868 19.7630719,19.5735797 C22.1728037,21.4987529 24.0765269,23.0193995 24.0765269,25.6730716 L24.0765269,32.9742263 L28.0734032,38.5671132 C28.3394366,38.9413395 28.2535001,39.4584758 27.8806468,39.7261894 C27.732984,39.829746 27.5644377,39.8799076 27.3972774,39.8799076 Z" id="Fill-1"></path>
                <path d="M5.81142889,16.6405543 C5.35337841,16.6405543 4.98117196,17.0140416 4.98117196,17.470485 C4.98117196,17.9270208 5.35337841,18.3005081 5.81142889,18.3005081 C6.269849,18.3005081 6.64159342,17.9270208 6.64159342,17.470485 C6.64159342,17.0140416 6.269849,16.6405543 5.81142889,16.6405543 Z M9.13254902,16.6405543 C8.67412892,16.6405543 8.30201487,17.0140416 8.30201487,17.470485 C8.30201487,17.9270208 8.67412892,18.3005081 9.13254902,18.3005081 C9.5905995,18.3005081 9.96271355,17.9270208 9.96271355,17.470485 C9.96271355,17.0140416 9.5905995,16.6405543 9.13254902,16.6405543 Z M12.4533919,16.6405543 C11.9949718,16.6405543 11.623135,17.0140416 11.623135,17.470485 C11.623135,17.9270208 11.9949718,18.3005081 12.4533919,18.3005081 C12.9117196,18.3005081 13.2835565,17.9270208 13.2835565,17.470485 C13.2835565,17.0140416 12.9117196,16.6405543 12.4533919,16.6405543 Z M5.81142889,19.9603695 C5.35337841,19.9603695 4.98117196,20.3338568 4.98117196,20.7903926 C4.98117196,21.246836 5.35337841,21.6203233 5.81142889,21.6203233 C6.269849,21.6203233 6.64159342,21.246836 6.64159342,20.7903926 C6.64159342,20.3338568 6.269849,19.9603695 5.81142889,19.9603695 Z M5.81142889,23.2802771 C5.35337841,23.2802771 4.98117196,23.6537644 4.98117196,24.1102079 C4.98117196,24.5671132 5.35337841,24.9406005 5.81142889,24.9406005 C6.269849,24.9406005 6.64159342,24.5671132 6.64159342,24.1102079 C6.64159342,23.6537644 6.269849,23.2802771 5.81142889,23.2802771 Z M5.81142889,26.6004619 C5.35337841,26.6004619 4.98117196,26.9739492 4.98117196,27.430485 C4.98117196,27.8869284 5.35337841,28.2604157 5.81142889,28.2604157 C6.269849,28.2604157 6.64159342,27.8869284 6.64159342,27.430485 C6.64159342,26.9739492 6.269849,26.6004619 5.81142889,26.6004619 Z M5.81142889,29.9203695 C5.35337841,29.9203695 4.98117196,30.2938568 4.98117196,30.7503002 C4.98117196,31.206836 5.35337841,31.5803233 5.81142889,31.5803233 C6.269849,31.5803233 6.64159342,31.206836 6.64159342,30.7503002 C6.64159342,30.2938568 6.269849,29.9203695 5.81142889,29.9203695 Z M9.13254902,19.9603695 C8.67412892,19.9603695 8.30201487,20.3338568 8.30201487,20.7903926 C8.30201487,21.246836 8.67412892,21.6203233 9.13254902,21.6203233 C9.5905995,21.6203233 9.96271355,21.246836 9.96271355,20.7903926 C9.96271355,20.3338568 9.5905995,19.9603695 9.13254902,19.9603695 Z M9.13254902,23.2802771 C8.67412892,23.2802771 8.30201487,23.6537644 8.30201487,24.1102079 C8.30201487,24.5671132 8.67412892,24.9406005 9.13254902,24.9406005 C9.5905995,24.9406005 9.96271355,24.5671132 9.96271355,24.1102079 C9.96271355,23.6537644 9.5905995,23.2802771 9.13254902,23.2802771 Z M9.13254902,26.6004619 C8.67412892,26.6004619 8.30201487,26.9739492 8.30201487,27.430485 C8.30201487,27.8869284 8.67412892,28.2604157 9.13254902,28.2604157 C9.5905995,28.2604157 9.96271355,27.8869284 9.96271355,27.430485 C9.96271355,26.9739492 9.5905995,26.6004619 9.13254902,26.6004619 Z M9.13254902,29.9203695 C8.67412892,29.9203695 8.30201487,30.2938568 8.30201487,30.7503002 C8.30201487,31.206836 8.67412892,31.5803233 9.13254902,31.5803233 C9.5905995,31.5803233 9.96271355,31.206836 9.96271355,30.7503002 C9.96271355,30.2938568 9.5905995,29.9203695 9.13254902,29.9203695 Z M12.4533919,19.9603695 C11.9949718,19.9603695 11.623135,20.3338568 11.623135,20.7903926 C11.623135,21.246836 11.9949718,21.6203233 12.4533919,21.6203233 C12.9117196,21.6203233 13.2835565,21.246836 13.2835565,20.7903926 C13.2835565,20.3338568 12.9117196,19.9603695 12.4533919,19.9603695 Z" id="Fill-3"></path>
                <path d="M13.3806739,9.5951963 C13.2225693,9.5951963 13.0629863,9.5508545 12.9218842,9.45662818 C10.7174758,7.98872979 7.7377913,7.99593533 5.55223349,9.45524249 C5.16921569,9.71030023 4.65452107,9.60674365 4.40077755,9.22642032 C4.14518594,8.84535797 4.24849448,8.33006928 4.62929457,8.0756582 C7.36355195,6.24683603 11.0885734,6.24360277 13.8412193,8.073903 C14.2231282,8.32822171 14.3270836,8.84323326 14.0733401,9.22494226 C13.9126482,9.46568129 13.6492022,9.5951963 13.3806739,9.5951963 Z M15.2211922,6.83362587 C15.0623484,6.83362587 14.9017489,6.78845266 14.7598152,6.69357968 C11.4820329,4.50180139 6.99679739,4.50032333 3.71097588,6.69357968 C3.32805048,6.94725173 2.81261663,6.84517321 2.55951995,6.46484988 C2.30402073,6.08406467 2.40723687,5.56840647 2.78803696,5.31408776 C6.62135677,2.75270208 11.8548862,2.75418014 15.6835858,5.31408776 C16.0643858,5.56840647 16.1664931,6.08406467 15.9120104,6.46484988 C15.7514109,6.70475751 15.4889813,6.83362587 15.2211922,6.83362587 Z M1.40732477,4.07159353 C1.1391661,4.07159353 0.876366915,3.94170901 0.71576741,3.70281755 C0.461284652,3.32101617 0.56413117,2.806097 0.945300879,2.55094688 C5.86585531,-0.736720554 12.5872865,-0.741431871 17.5237345,2.55094688 C17.9049042,2.80535797 18.0088596,3.32 17.7540072,3.70170901 C17.498046,4.08461894 16.9808564,4.18494226 16.6029209,3.93200924 C12.2133243,1.00508083 6.24305161,1.01154734 1.86796259,3.93200924 C1.72612125,4.02614319 1.56542934,4.07159353 1.40732477,4.07159353 Z" id="Fill-4"></path>
            </g>
        </g>
    </g>
</svg>