<?xml version="1.0" encoding="UTF-8"?>
<svg width="26px" height="40px" viewBox="0 0 26 40" version="1.1" xmlns="http://www.w3.org/2000/svg" xmlns:xlink="http://www.w3.org/1999/xlink">
    <!-- Generator: Sketch 45.2 (43514) - http://www.bohemiancoding.com/sketch -->
    <title>Group 18</title>
    <desc>Created with Sketch.</desc>
    <defs></defs>
    <g id="Page-1" stroke="none" stroke-width="1" fill="none" fill-rule="evenodd" opacity="0.78">
        <g id="bTaskee_Service_AirConditioningCleaning" transform="translate(-808.000000, -1797.000000)" stroke="#000000">
            <g id="Group-18" transform="translate(808.000000, 1797.000000)">
                <path d="M11.8207547,18.3679245 L13.8396226,18.3679245 L13.8396226,1.50943396 C13.8396226,0.951938979 13.3876837,0.5 12.8301887,0.5 C12.2726937,0.5 11.8207547,0.951938979 11.8207547,1.50943396 L11.8207547,18.3679245 Z" id="Rectangle-11"></path>
                <path d="M3,21.8820755 C1.75735931,21.8820755 0.75,22.8894348 0.75,24.1320755 L0.75,34.9470778 C0.75,35.8925123 1.34103388,36.7370995 2.2292704,37.0609548 C5.76748973,38.3510063 9.29998318,38.9949882 12.8301887,38.9949882 C16.3603942,38.9949882 19.8928876,38.3510063 23.4311069,37.0609548 C24.3193435,36.7370995 24.9103774,35.8925123 24.9103774,34.9470778 L24.9103774,24.1320755 C24.9103774,22.8894348 23.903018,21.8820755 22.6603774,21.8820755 L3,21.8820755 Z" id="Rectangle-6" stroke-width="1.5"></path>
                <rect id="Rectangle-9" stroke-width="1.5" x="6.03301887" y="18.8632075" width="14.3490566" height="2.27358491"></rect>
            </g>
        </g>
    </g>
</svg>